<?xml version='1.0' encoding='utf-8'?>
<svg xmlns:ns0="http://www.w3.org/2000/svg" xmlns:ns1="http://www.inkscape.org/namespaces/inkscape" xmlns:ns2="http://sodipodi.sourceforge.net/DTD/sodipodi-0.dtd" height="512" version="1.1" width="512" xmlns="http://www.w3.org/2000/svg"><ns0:path d="m 256,121.99937 c -73.93509,0 -134,60.06491 -134,134 0,73.93508 60.06491,134 134,134 73.93509,0 134,-60.06492 134,-134 0,-73.93509 -60.06491,-134 -134,-134 z" id="path4851-3" style="color:#000000;font-style:normal;font-variant:normal;font-weight:normal;font-stretch:normal;font-size:medium;line-height:normal;font-family:sans-serif;font-variant-ligatures:normal;font-variant-position:normal;font-variant-caps:normal;font-variant-numeric:normal;font-variant-alternates:normal;font-feature-settings:normal;text-indent:0;text-align:start;text-decoration:none;text-decoration-line:none;text-decoration-style:solid;text-decoration-color:#000000;letter-spacing:normal;word-spacing:normal;text-transform:none;writing-mode:lr-tb;direction:ltr;text-orientation:mixed;dominant-baseline:auto;baseline-shift:baseline;text-anchor:start;white-space:normal;shape-padding:0;clip-rule:nonzero;display:inline;overflow:visible;visibility:visible;opacity:1;isolation:auto;mix-blend-mode:normal;color-interpolation:sRGB;color-interpolation-filters:linearRGB;solid-color:#000000;solid-opacity:1;vector-effect:none;fill:#787878;fill-opacity:1;fill-rule:nonzero;stroke:none;stroke-width:12;stroke-linecap:butt;stroke-linejoin:miter;stroke-miterlimit:4;stroke-dasharray:none;stroke-dashoffset:0;stroke-opacity:1;color-rendering:auto;image-rendering:auto;shape-rendering:auto;text-rendering:auto;enable-background:accumulate" ns2:nodetypes="sssss" ns1:connector-curvature="0" />
    <ns0:circle cx="256" cy="255.99998" id="path3955-4" r="248" style="display:inline;fill:none;stroke:#323232;stroke-width:4;stroke-miterlimit:4;stroke-dasharray:none;stroke-opacity:1" />
    <ns0:path d="m 256,134 c -43.05826,0 -80.85544,22.23206 -102.56445,55.85742 l 20.39062,11.77149 C 195.71108,166.1041 234.26746,141.06076 279.11523,136.18945 271.63106,134.75772 263.90567,134 256,134 Z" id="path4849-9" style="display:inline;fill:#455289;fill-opacity:1;stroke:none;stroke-width:4;stroke-miterlimit:4;stroke-dasharray:none;stroke-opacity:1" ns1:connector-curvature="0" />
    <ns0:path d="m 340.64844,168.09961 c -49.52707,2.22459 -91.89047,27.56733 -114.1543,63.9375 L 256,249.07227 358.56445,189.85547 c -5.12293,-7.93474 -11.14327,-15.23258 -17.91601,-21.75586 z" id="path4845-6" style="display:inline;fill:#455289;fill-opacity:1;stroke:none;stroke-width:4;stroke-miterlimit:4;stroke-dasharray:none;stroke-opacity:1" ns1:connector-curvature="0" />
    <ns0:path d="m 147.43555,200.24805 c -4.31022,8.40395 -7.61986,17.26752 -9.88282,26.39453 26.69009,41.7794 69.81786,65.79662 112.44727,66.89258 v -34.07032 z" id="path4843-2" style="display:inline;fill:#f26337;fill-opacity:1;stroke:none;stroke-width:4;stroke-miterlimit:4;stroke-dasharray:none;stroke-opacity:1" ns1:connector-curvature="0" />
    <ns0:path d="m 364.5625,200.24805 -20.38867,11.77343 c 19.82293,36.71529 22.23255,82.62739 4.02734,123.90235 4.982,-5.76561 9.50029,-12.07732 13.45313,-18.92383 21.52913,-37.28955 21.17411,-81.13872 2.9082,-116.75195 z" id="path4841-2" style="display:inline;fill:#ffffff;fill-opacity:1;stroke:none;stroke-width:4;stroke-miterlimit:4;stroke-dasharray:none;stroke-opacity:1" ns1:connector-curvature="0" />
    <ns0:path d="m 333.81445,218.00195 -31.92187,18.42969 c 20.63845,37.84293 22.87999,86.49363 3.91406,130.97656 4.86992,-2.17416 9.60973,-4.66341 14.17969,-7.47461 3.81886,-4.90292 7.35628,-10.1322 10.5625,-15.68554 23.70987,-41.06669 23.34004,-88.91459 3.26562,-126.2461 z" id="path4839-5" style="display:inline;fill:#ffffff;fill-opacity:1;stroke:none;stroke-width:4;stroke-miterlimit:4;stroke-dasharray:none;stroke-opacity:1" ns1:connector-curvature="0" />
    <ns0:path d="m 134.61328,243.42969 c -0.5521,5.30455 -0.76482,10.65428 -0.61523,16.01758 2.33662,5.75869 5.0965,11.43689 8.30273,16.99023 23.70986,41.06669 65.33198,64.67037 107.69922,65.95117 V 305.5293 c -43.09216,-1.04804 -86.34634,-23.43317 -115.38672,-62.09961 z" id="path4835-7" style="display:inline;fill:#f26337;fill-opacity:1;stroke:none;stroke-width:4;stroke-miterlimit:4;stroke-dasharray:none;stroke-opacity:1" ns1:connector-curvature="0" />
    <ns0:path d="m 140.68359,295.88672 c 2.50217,7.19734 5.70928,14.26677 9.66211,21.11328 21.52913,37.28955 59.68133,58.90666 99.65625,60.89453 L 250,354.34961 c -41.70784,-1.19048 -82.67385,-22.05924 -109.31641,-58.46289 z" id="path4762-1" style="display:inline;fill:#f26337;fill-opacity:1;stroke:none;stroke-width:4;stroke-miterlimit:4;stroke-dasharray:none;stroke-opacity:1" ns1:connector-curvature="0" />
    <ns0:path d="m 295.15039,147.31445 c -47.41973,0 -88.67202,24.24421 -110.96484,60.29493 l 31.92187,18.42968 c 22.45371,-36.79489 63.46635,-63.06046 111.47266,-68.87695 -4.31784,-3.13039 -8.84489,-5.99087 -13.56446,-8.54297 -6.15548,-0.85577 -12.45278,-1.30469 -18.86523,-1.30469 z" id="path4847-0" style="display:inline;fill:#455289;fill-opacity:1;stroke:none;stroke-width:4;stroke-miterlimit:4;stroke-dasharray:none;stroke-opacity:1" ns1:connector-curvature="0" />
    <ns0:path d="M 291.50586,242.42773 262,259.46484 v 118.43164 c 9.43315,-0.46921 18.76313,-2.03494 27.79883,-4.63867 22.83698,-44.00399 22.07261,-93.36395 1.70703,-130.83008 z" id="path4837-8" style="display:inline;fill:#ffffff;fill-opacity:1;stroke:none;stroke-width:4;stroke-miterlimit:4;stroke-dasharray:none;stroke-opacity:1" ns1:connector-curvature="0" />
  </svg>