<?xml version='1.0' encoding='utf-8'?>
<svg xmlns:ns0="http://www.w3.org/2000/svg" xmlns:ns1="http://www.inkscape.org/namespaces/inkscape" xmlns:ns2="http://sodipodi.sourceforge.net/DTD/sodipodi-0.dtd" height="512" version="1.1" width="512" xmlns="http://www.w3.org/2000/svg"><ns0:path d="m 130.28614,191.17158 c -3.52546,0 -6.36364,2.83818 -6.36364,6.36364 v 120.90909 c 0,7.05091 5.67636,12.72727 12.72727,12.72727 h 70 c 7.05091,0 12.72728,-5.67636 12.72728,-12.72727 V 197.53522 c 0,-3.52546 -2.83818,-6.36364 -6.36364,-6.36364 z" id="rect1292" style="fill:#455289;fill-opacity:1;stroke:none;stroke-width:3.18181825;stroke-linecap:round;stroke-linejoin:round;stroke-miterlimit:4;stroke-dasharray:none;stroke-opacity:1" ns2:nodetypes="sccssccss" ns1:connector-curvature="0" />
    <ns0:circle cx="256" cy="256" id="path1283" r="248" style="fill:none;fill-opacity:1;stroke:#323232;stroke-width:4;stroke-linecap:round;stroke-linejoin:round;stroke-miterlimit:4;stroke-dasharray:none;stroke-opacity:1" />
    <ns0:path d="m 206.64977,216.62613 c -10.57636,0 -19.0909,8.51454 -19.0909,19.0909 v 38.18182 c 0,10.57637 8.51454,19.09091 19.0909,19.09091 h 25.45455 c 10.57636,0 19.09091,-8.51454 19.09091,-19.09091 v -38.18182 c 0,-10.57636 -8.51455,-19.0909 -19.09091,-19.0909 z m 0,12.72727 h 25.45455 c 3.52545,0 6.36364,2.83818 6.36364,6.36363 v 38.18182 c 0,3.52546 -2.83819,6.36364 -6.36364,6.36364 h -25.45455 c -3.52545,0 -6.36363,-2.83818 -6.36363,-6.36364 v -38.18182 c 0,-3.52545 2.83818,-6.36363 6.36363,-6.36363 z" id="rect1287" style="fill:#455289;fill-opacity:1;stroke:none;stroke-width:3.18181825;stroke-linecap:round;stroke-linejoin:round;stroke-miterlimit:4;stroke-dasharray:none;stroke-opacity:1" ns1:connector-curvature="0" />
    <ns0:circle cx="143.0134" cy="305.71704" id="path1305" r="12.727273" style="fill:#000000;fill-opacity:0.39215686;stroke:none;stroke-width:3.18181825;stroke-linecap:round;stroke-linejoin:round;stroke-miterlimit:4;stroke-dasharray:none;stroke-opacity:1" />
    <ns0:circle cx="143.0134" cy="273.89883" id="circle1307" r="12.727273" style="fill:#000000;fill-opacity:0.39215686;stroke:none;stroke-width:3.18181825;stroke-linecap:round;stroke-linejoin:round;stroke-miterlimit:4;stroke-dasharray:none;stroke-opacity:1" />
    <ns0:circle cx="143.0134" cy="242.08066" id="circle1309" r="12.727273" style="fill:#000000;fill-opacity:0.39215686;stroke:none;stroke-width:3.18181825;stroke-linecap:round;stroke-linejoin:round;stroke-miterlimit:4;stroke-dasharray:none;stroke-opacity:1" />
    <ns0:circle cx="143.0134" cy="210.26248" id="circle1311" r="12.727273" style="fill:#000000;fill-opacity:0.39215686;stroke:none;stroke-width:3.18181825;stroke-linecap:round;stroke-linejoin:round;stroke-miterlimit:4;stroke-dasharray:none;stroke-opacity:1" />
    <ns0:circle cx="171.64977" cy="289.80792" id="circle1313" r="12.727273" style="fill:#000000;fill-opacity:0.39215686;stroke:none;stroke-width:3.18181825;stroke-linecap:round;stroke-linejoin:round;stroke-miterlimit:4;stroke-dasharray:none;stroke-opacity:1" />
    <ns0:circle cx="171.64977" cy="257.98975" id="circle1315" r="12.727273" style="fill:#000000;fill-opacity:0.39215686;stroke:none;stroke-width:3.18181825;stroke-linecap:round;stroke-linejoin:round;stroke-miterlimit:4;stroke-dasharray:none;stroke-opacity:1" />
    <ns0:circle cx="171.64977" cy="226.17157" id="circle1317" r="12.727273" style="fill:#000000;fill-opacity:0.39215686;stroke:none;stroke-width:3.18181825;stroke-linecap:round;stroke-linejoin:round;stroke-miterlimit:4;stroke-dasharray:none;stroke-opacity:1" />
    <ns0:circle cx="200.28613" cy="305.71704" id="circle1319" r="12.727273" style="fill:#000000;fill-opacity:0.39215686;stroke:none;stroke-width:3.18181825;stroke-linecap:round;stroke-linejoin:round;stroke-miterlimit:4;stroke-dasharray:none;stroke-opacity:1" />
    <ns0:circle cx="200.28613" cy="273.89883" id="circle1321" r="12.727273" style="fill:#000000;fill-opacity:0.39215686;stroke:none;stroke-width:3.18181825;stroke-linecap:round;stroke-linejoin:round;stroke-miterlimit:4;stroke-dasharray:none;stroke-opacity:1" />
    <ns0:circle cx="200.28613" cy="242.08066" id="circle1323" r="12.727273" style="fill:#000000;fill-opacity:0.39215686;stroke:none;stroke-width:3.18181825;stroke-linecap:round;stroke-linejoin:round;stroke-miterlimit:4;stroke-dasharray:none;stroke-opacity:1" />
    <ns0:circle cx="200.28613" cy="210.26248" id="circle1325" r="12.727273" style="fill:#000000;fill-opacity:0.39215686;stroke:none;stroke-width:3.18181825;stroke-linecap:round;stroke-linejoin:round;stroke-miterlimit:4;stroke-dasharray:none;stroke-opacity:1" />
    <ns0:path d="m 183.96223,197.53522 h -24.61869 a 12.727273,12.727273 0 0 0 12.30623,9.54545 12.727273,12.727273 0 0 0 12.31246,-9.54545 z" id="path1342" style="fill:#000000;fill-opacity:0.39215686;stroke:none;stroke-width:3.18181825;stroke-linecap:round;stroke-linejoin:round;stroke-miterlimit:4;stroke-dasharray:none;stroke-opacity:1" ns1:connector-curvature="0" />
    <ns0:path d="m 171.64977,308.89885 a 12.727273,12.727273 0 0 0 -12.31246,9.54546 h 24.6187 a 12.727273,12.727273 0 0 0 -12.30624,-9.54546 z" id="circle1327" style="fill:#000000;fill-opacity:0.39215686;stroke:none;stroke-width:3.18181825;stroke-linecap:round;stroke-linejoin:round;stroke-miterlimit:4;stroke-dasharray:none;stroke-opacity:1" ns1:connector-curvature="0" />
    <ns0:path d="m 393.66751,291.71365 c -23.75695,-42.81041 -53.73832,-73.55224 -84.09988,-73.93249 -18.21696,-0.22812 -36.58601,11.68838 -36.8902,35.97763 -0.29552,23.59743 17.60858,48.8067 72.25944,49.49113 54.65085,0.68443 73.172,-23.37671 73.47619,-47.66596 0.3042,-24.28927 -17.76068,-36.66207 -35.97762,-36.89022 -30.36159,-0.38023 -55.03111,29.67717 -85.92503,71.80315" id="path1344" style="fill:none;fill-rule:evenodd;stroke:#f26337;stroke-width:21.35300064;stroke-linecap:butt;stroke-linejoin:miter;stroke-miterlimit:4;stroke-dasharray:none;stroke-opacity:1" ns2:nodetypes="csssssc" ns1:connector-curvature="0" />
  </svg>