<?xml version='1.0' encoding='utf-8'?>
<svg xmlns:ns0="http://www.w3.org/2000/svg" xmlns:ns1="http://www.inkscape.org/namespaces/inkscape" xmlns:ns2="http://sodipodi.sourceforge.net/DTD/sodipodi-0.dtd" height="512" version="1.1" width="512" xmlns="http://www.w3.org/2000/svg"><ns0:path d="m 136,177.52921 v 156.27592 h 34.49422 1.32522 45.50454 c 0,0 49.6348,1.5831 49.6348,-46.11749 0,0 2.16712,-38.81772 -29.27066,-38.81772 0,0 23.84833,-1.78393 23.84833,-29.74554 0,-27.9616 -19.50644,-41.59517 -44.21247,-41.59517 h -45.50454 -1.32522 z m 163.55354,6.55151 v 19.25424 h 64.47723 v -19.25424 z m -127.7341,21.2283 h 39.6515 5.85304 c 0,0 11.04897,-0.005 11.04897,16.25043 0,16.24756 -6.51297,18.61928 -13.87608,18.61928 h -42.67743 z m 161.35591,9.33445 c -60.09906,0 -60.03775,60.04877 -60.03775,60.04877 0,0 -4.13097,59.73405 60.03775,59.73405 0,0 53.49446,3.05995 53.49446,-41.56756 h -27.51475 c 0,0 0.90556,16.81917 -25.06315,16.81917 0,0 -27.49816,1.83755 -27.49816,-27.18898 h 80.98162 c 0,0 8.86347,-67.84545 -54.40002,-67.84545 z m 0.60736,22.89307 c 24.15837,0 23.83177,24.09682 23.83177,24.09682 h -51.32995 c 0,0 3.35507,-24.09682 27.49818,-24.09682 z m -161.96327,26.73899 h 45.50454 c 0,0 16.46027,-0.23432 16.46027,21.45191 0,18.2709 -12.28205,20.17335 -18.76283,20.32548 -1.20184,0.0143 -2.23087,0 -2.91548,0 h -40.2865 z" id="path4187" style="display:inline;opacity:1;fill:#455289;fill-opacity:1;stroke:none;stroke-width:1.89321601;stroke-linecap:round;stroke-linejoin:round;stroke-miterlimit:4;stroke-dasharray:none;stroke-opacity:1" ns2:nodetypes="cccccccsscccccccccccssccscccccccssccsccscscc" ns1:connector-curvature="0" />
    <ns0:circle cx="256" cy="255.99998" id="path3955-4-3" r="248" style="display:inline;fill:none;stroke:#455289;stroke-width:4;stroke-miterlimit:4;stroke-dasharray:none;stroke-opacity:1" />
  </svg>