<?xml version='1.0' encoding='utf-8'?>
<svg xmlns:ns0="http://www.w3.org/2000/svg" xmlns:ns1="http://www.inkscape.org/namespaces/inkscape" xmlns:ns2="http://sodipodi.sourceforge.net/DTD/sodipodi-0.dtd" height="512" version="1.1" width="512" xmlns="http://www.w3.org/2000/svg"><ns0:circle cx="256" cy="256" id="path1083" r="248" style="fill:none;fill-opacity:1;stroke:#323232;stroke-width:4;stroke-linecap:round;stroke-linejoin:miter;stroke-miterlimit:4;stroke-dasharray:none;stroke-opacity:1" />
    <ns0:path d="m 256,214.92397 a 41.537189,41.537189 0 0 0 -2.93884,0.10343 41.537189,41.537189 0 0 0 -4.12127,0.50095 41.537189,41.537189 0 0 0 -4.05028,0.90863 41.537189,41.537189 0 0 0 -3.94076,1.31021 41.537189,41.537189 0 0 0 -3.79067,1.69556 41.537189,41.537189 0 0 0 -3.60003,2.06672 41.537189,41.537189 0 0 0 -3.37894,2.41354 41.537189,41.537189 0 0 0 -3.11935,2.7421 41.537189,41.537189 0 0 0 -2.82932,3.03619 41.537189,41.537189 0 0 0 -2.51292,3.30593 41.537189,41.537189 0 0 0 -2.17016,3.53919 41.537189,41.537189 0 0 0 -1.80508,3.73997 41.537189,41.537189 0 0 0 -1.42378,3.9002 41.537189,41.537189 0 0 0 -1.02828,4.02187 41.537189,41.537189 0 0 0 -0.62063,4.10505 41.537189,41.537189 0 0 0 -0.20688,4.14765 41.537189,41.537189 0 0 0 0.10343,2.93884 41.537189,41.537189 0 0 0 0.50096,4.12126 41.537189,41.537189 0 0 0 0.90862,4.05028 41.537189,41.537189 0 0 0 1.31021,3.94076 41.537189,41.537189 0 0 0 1.69556,3.79068 41.537189,41.537189 0 0 0 2.06672,3.60002 41.537189,41.537189 0 0 0 2.41354,3.37895 41.537189,41.537189 0 0 0 2.7421,3.11935 41.537189,41.537189 0 0 0 3.03619,2.82932 41.537189,41.537189 0 0 0 3.30594,2.51291 41.537189,41.537189 0 0 0 3.53918,2.17016 41.537189,41.537189 0 0 0 3.73997,1.80509 41.537189,41.537189 0 0 0 3.9002,1.42378 41.537189,41.537189 0 0 0 4.02188,1.02828 41.537189,41.537189 0 0 0 4.10505,0.62063 41.537189,41.537189 0 0 0 4.14764,0.20688 41.537189,41.537189 0 0 0 2.93884,-0.10343 41.537189,41.537189 0 0 0 4.12127,-0.50096 41.537189,41.537189 0 0 0 4.05028,-0.90863 41.537189,41.537189 0 0 0 3.94076,-1.31021 41.537189,41.537189 0 0 0 3.79067,-1.69555 41.537189,41.537189 0 0 0 3.60003,-2.06673 41.537189,41.537189 0 0 0 3.37894,-2.41354 41.537189,41.537189 0 0 0 3.11935,-2.7421 41.537189,41.537189 0 0 0 2.82932,-3.03619 41.537189,41.537189 0 0 0 2.51292,-3.30593 41.537189,41.537189 0 0 0 2.17016,-3.53919 41.537189,41.537189 0 0 0 1.80508,-3.73997 41.537189,41.537189 0 0 0 1.42378,-3.90019 41.537189,41.537189 0 0 0 1.02828,-4.02188 41.537189,41.537189 0 0 0 0.62063,-4.10505 41.537189,41.537189 0 0 0 0.20688,-4.14764 41.537189,41.537189 0 0 0 -0.10343,-2.93884 41.537189,41.537189 0 0 0 -0.50096,-4.12127 41.537189,41.537189 0 0 0 -0.90862,-4.05028 41.537189,41.537189 0 0 0 -1.31021,-3.94076 41.537189,41.537189 0 0 0 -1.69556,-3.79067 41.537189,41.537189 0 0 0 -2.06672,-3.60003 41.537189,41.537189 0 0 0 -2.41354,-3.37895 41.537189,41.537189 0 0 0 -2.7421,-3.11935 41.537189,41.537189 0 0 0 -3.03619,-2.82931 41.537189,41.537189 0 0 0 -3.30594,-2.51292 41.537189,41.537189 0 0 0 -3.53918,-2.17016 41.537189,41.537189 0 0 0 -3.73997,-1.80508 41.537189,41.537189 0 0 0 -3.9002,-1.42378 41.537189,41.537189 0 0 0 -4.02188,-1.02829 41.537189,41.537189 0 0 0 -4.10505,-0.62063 A 41.537189,41.537189 0 0 0 256,214.92397 Z" id="path1106" style="fill:#323232;fill-opacity:1;stroke:none;stroke-width:4.15371895;stroke-linecap:round;stroke-linejoin:miter;stroke-miterlimit:4;stroke-dasharray:none;stroke-opacity:1" ns1:connector-curvature="0" />
    <ns0:path d="m 256,206.61653 a 49.844626,49.844626 0 0 0 -3.52498,0.12574 49.844626,49.844626 0 0 0 -4.94674,0.60035 49.844626,49.844626 0 0 0 -4.86155,1.09116 49.844626,49.844626 0 0 0 -4.7277,1.56982 49.844626,49.844626 0 0 0 -4.54922,2.0363 49.844626,49.844626 0 0 0 -4.32002,2.47844 49.844626,49.844626 0 0 0 -4.05434,2.89826 49.844626,49.844626 0 0 0 -3.742,3.28769 49.844626,49.844626 0 0 0 -3.39721,3.64667 49.844626,49.844626 0 0 0 -3.01387,3.9651 49.844626,49.844626 0 0 0 -2.6042,4.24904 49.844626,49.844626 0 0 0 -2.16812,4.48634 49.844626,49.844626 0 0 0 -1.70773,4.67902 49.844626,49.844626 0 0 0 -1.23314,4.8291 49.844626,49.844626 0 0 0 -0.74434,4.92443 49.844626,49.844626 0 0 0 -0.24947,4.97717 49.844626,49.844626 0 0 0 0.12575,3.52498 49.844626,49.844626 0 0 0 0.60034,4.94673 49.844626,49.844626 0 0 0 1.09117,4.86156 49.844626,49.844626 0 0 0 1.56981,4.7277 49.844626,49.844626 0 0 0 2.0363,4.54921 49.844626,49.844626 0 0 0 2.47844,4.32003 49.844626,49.844626 0 0 0 2.89827,4.05434 49.844626,49.844626 0 0 0 3.28769,3.742 49.844626,49.844626 0 0 0 3.64666,3.3972 49.844626,49.844626 0 0 0 3.9651,3.01388 49.844626,49.844626 0 0 0 4.24905,2.60419 49.844626,49.844626 0 0 0 4.48633,2.16813 49.844626,49.844626 0 0 0 4.67902,1.70773 49.844626,49.844626 0 0 0 4.82911,1.23313 49.844626,49.844626 0 0 0 4.92443,0.74435 49.844626,49.844626 0 0 0 4.97716,0.24946 49.844626,49.844626 0 0 0 3.52498,-0.12574 49.844626,49.844626 0 0 0 4.94674,-0.60035 49.844626,49.844626 0 0 0 4.86155,-1.09116 49.844626,49.844626 0 0 0 4.7277,-1.56981 49.844626,49.844626 0 0 0 4.54922,-2.0363 49.844626,49.844626 0 0 0 4.32002,-2.47844 49.844626,49.844626 0 0 0 4.05434,-2.89827 49.844626,49.844626 0 0 0 3.742,-3.28769 49.844626,49.844626 0 0 0 3.39721,-3.64666 49.844626,49.844626 0 0 0 3.01387,-3.9651 49.844626,49.844626 0 0 0 2.6042,-4.24905 49.844626,49.844626 0 0 0 2.16812,-4.48634 49.844626,49.844626 0 0 0 1.70773,-4.67902 49.844626,49.844626 0 0 0 1.23314,-4.8291 49.844626,49.844626 0 0 0 0.74434,-4.92443 49.844626,49.844626 0 0 0 0.24947,-4.97716 49.844626,49.844626 0 0 0 -0.12575,-3.52498 49.844626,49.844626 0 0 0 -0.60034,-4.94674 49.844626,49.844626 0 0 0 -1.09117,-4.86155 49.844626,49.844626 0 0 0 -1.56981,-4.72771 49.844626,49.844626 0 0 0 -2.0363,-4.54921 49.844626,49.844626 0 0 0 -2.47844,-4.32002 49.844626,49.844626 0 0 0 -2.89827,-4.05435 49.844626,49.844626 0 0 0 -3.28769,-3.742 49.844626,49.844626 0 0 0 -3.64666,-3.3972 49.844626,49.844626 0 0 0 -3.9651,-3.01388 49.844626,49.844626 0 0 0 -4.24905,-2.60419 49.844626,49.844626 0 0 0 -4.48633,-2.16813 49.844626,49.844626 0 0 0 -4.67902,-1.70773 49.844626,49.844626 0 0 0 -4.82911,-1.23313 49.844626,49.844626 0 0 0 -4.92443,-0.74435 A 49.844626,49.844626 0 0 0 256,206.61653 Z m 0,8.30744 a 41.537189,41.537189 0 0 1 4.14763,0.20687 41.537189,41.537189 0 0 1 4.10505,0.62063 41.537189,41.537189 0 0 1 4.02188,1.02829 41.537189,41.537189 0 0 1 3.9002,1.42378 41.537189,41.537189 0 0 1 3.73996,1.80508 41.537189,41.537189 0 0 1 3.53919,2.17016 41.537189,41.537189 0 0 1 3.30594,2.51292 41.537189,41.537189 0 0 1 3.03619,2.82931 41.537189,41.537189 0 0 1 2.7421,3.11935 41.537189,41.537189 0 0 1 2.41354,3.37895 41.537189,41.537189 0 0 1 2.06672,3.60003 41.537189,41.537189 0 0 1 1.69556,3.79067 41.537189,41.537189 0 0 1 1.31021,3.94076 41.537189,41.537189 0 0 1 0.90862,4.05028 41.537189,41.537189 0 0 1 0.50096,4.12127 41.537189,41.537189 0 0 1 0.10344,2.93884 41.537189,41.537189 0 0 1 -0.20688,4.14763 41.537189,41.537189 0 0 1 -0.62063,4.10505 41.537189,41.537189 0 0 1 -1.02828,4.02188 41.537189,41.537189 0 0 1 -1.42378,3.90019 41.537189,41.537189 0 0 1 -1.80508,3.73997 41.537189,41.537189 0 0 1 -2.17016,3.53919 41.537189,41.537189 0 0 1 -2.51292,3.30593 41.537189,41.537189 0 0 1 -2.82932,3.03619 41.537189,41.537189 0 0 1 -3.11935,2.7421 41.537189,41.537189 0 0 1 -3.37894,2.41354 41.537189,41.537189 0 0 1 -3.60003,2.06673 41.537189,41.537189 0 0 1 -3.79067,1.69555 41.537189,41.537189 0 0 1 -3.94076,1.31021 41.537189,41.537189 0 0 1 -4.05028,0.90863 41.537189,41.537189 0 0 1 -4.12127,0.50096 41.537189,41.537189 0 0 1 -2.93884,0.10344 41.537189,41.537189 0 0 1 -4.14763,-0.20688 41.537189,41.537189 0 0 1 -4.10505,-0.62063 41.537189,41.537189 0 0 1 -4.02188,-1.02828 41.537189,41.537189 0 0 1 -3.9002,-1.42378 41.537189,41.537189 0 0 1 -3.73996,-1.80509 41.537189,41.537189 0 0 1 -3.53919,-2.17016 41.537189,41.537189 0 0 1 -3.30594,-2.51291 41.537189,41.537189 0 0 1 -3.03619,-2.82932 41.537189,41.537189 0 0 1 -2.7421,-3.11935 41.537189,41.537189 0 0 1 -2.41354,-3.37895 41.537189,41.537189 0 0 1 -2.06672,-3.60002 41.537189,41.537189 0 0 1 -1.69556,-3.79068 41.537189,41.537189 0 0 1 -1.31021,-3.94076 41.537189,41.537189 0 0 1 -0.90862,-4.05028 41.537189,41.537189 0 0 1 -0.50096,-4.12126 41.537189,41.537189 0 0 1 -0.10344,-2.93884 41.537189,41.537189 0 0 1 0.20688,-4.14764 41.537189,41.537189 0 0 1 0.62063,-4.10504 41.537189,41.537189 0 0 1 1.02828,-4.02188 41.537189,41.537189 0 0 1 1.42378,-3.9002 41.537189,41.537189 0 0 1 1.80508,-3.73997 41.537189,41.537189 0 0 1 2.17016,-3.53918 41.537189,41.537189 0 0 1 2.51292,-3.30594 41.537189,41.537189 0 0 1 2.82932,-3.03619 41.537189,41.537189 0 0 1 3.11935,-2.7421 41.537189,41.537189 0 0 1 3.37894,-2.41354 41.537189,41.537189 0 0 1 3.60003,-2.06672 41.537189,41.537189 0 0 1 3.79067,-1.69556 41.537189,41.537189 0 0 1 3.94076,-1.31021 41.537189,41.537189 0 0 1 4.05028,-0.90862 41.537189,41.537189 0 0 1 4.12127,-0.50096 A 41.537189,41.537189 0 0 1 256,214.92397 Z" id="path1096" style="fill:#c8c8c8;fill-opacity:1;stroke:none;stroke-width:4.15371895;stroke-linecap:round;stroke-linejoin:miter;stroke-miterlimit:4;stroke-dasharray:none;stroke-opacity:1" ns1:connector-curvature="0" />
    <ns0:path d="m 256,198.30909 a 58.152064,58.152064 0 0 0 -4.11316,0.14603 58.152064,58.152064 0 0 0 -5.77018,0.69972 58.152064,58.152064 0 0 0 -5.67283,1.27371 58.152064,58.152064 0 0 0 -5.51665,1.83347 58.152064,58.152064 0 0 0 -5.30572,2.37298 58.152064,58.152064 0 0 0 -5.04207,2.89218 58.152064,58.152064 0 0 0 -4.7277,3.38098 58.152064,58.152064 0 0 0 -4.36667,3.83732 58.152064,58.152064 0 0 0 -3.96307,4.25311 58.152064,58.152064 0 0 0 -3.51687,4.62831 58.152064,58.152064 0 0 0 -3.03822,4.95485 58.152064,58.152064 0 0 0 -2.52915,5.23474 58.152064,58.152064 0 0 0 -1.99167,5.45987 58.152064,58.152064 0 0 0 -1.43798,5.63227 58.152064,58.152064 0 0 0 -0.87009,5.74787 58.152064,58.152064 0 0 0 -0.29003,5.80466 58.152064,58.152064 0 0 0 0.14602,4.11315 58.152064,58.152064 0 0 0 0.69973,5.77018 58.152064,58.152064 0 0 0 1.2737,5.67283 58.152064,58.152064 0 0 0 1.83347,5.51666 58.152064,58.152064 0 0 0 2.37298,5.30572 58.152064,58.152064 0 0 0 2.89218,5.04207 58.152064,58.152064 0 0 0 3.38099,4.7277 58.152064,58.152064 0 0 0 3.83732,4.36667 58.152064,58.152064 0 0 0 4.2531,3.96307 58.152064,58.152064 0 0 0 4.62832,3.51687 58.152064,58.152064 0 0 0 4.95484,3.03822 58.152064,58.152064 0 0 0 5.23475,2.52914 58.152064,58.152064 0 0 0 5.45986,1.99168 58.152064,58.152064 0 0 0 5.63227,1.43798 58.152064,58.152064 0 0 0 5.74787,0.87009 58.152064,58.152064 0 0 0 5.80466,0.29003 58.152064,58.152064 0 0 0 4.11316,-0.14602 58.152064,58.152064 0 0 0 5.77018,-0.69973 58.152064,58.152064 0 0 0 5.67283,-1.27371 58.152064,58.152064 0 0 0 5.51665,-1.83347 58.152064,58.152064 0 0 0 5.30572,-2.37298 58.152064,58.152064 0 0 0 5.04207,-2.89218 58.152064,58.152064 0 0 0 4.7277,-3.38098 58.152064,58.152064 0 0 0 4.36667,-3.83732 58.152064,58.152064 0 0 0 3.96307,-4.25311 58.152064,58.152064 0 0 0 3.51687,-4.62831 58.152064,58.152064 0 0 0 3.03822,-4.95485 58.152064,58.152064 0 0 0 2.52915,-5.23474 58.152064,58.152064 0 0 0 1.99167,-5.45987 58.152064,58.152064 0 0 0 1.43798,-5.63226 58.152064,58.152064 0 0 0 0.87009,-5.74788 58.152064,58.152064 0 0 0 0.29003,-5.80465 58.152064,58.152064 0 0 0 -0.14602,-4.11316 58.152064,58.152064 0 0 0 -0.69973,-5.77018 58.152064,58.152064 0 0 0 -1.2737,-5.67283 58.152064,58.152064 0 0 0 -1.83347,-5.51666 58.152064,58.152064 0 0 0 -2.37298,-5.30572 58.152064,58.152064 0 0 0 -2.89218,-5.04206 58.152064,58.152064 0 0 0 -3.38099,-4.7277 58.152064,58.152064 0 0 0 -3.83732,-4.36667 58.152064,58.152064 0 0 0 -4.2531,-3.96308 58.152064,58.152064 0 0 0 -4.62832,-3.51687 58.152064,58.152064 0 0 0 -4.95484,-3.03821 58.152064,58.152064 0 0 0 -5.23475,-2.52915 58.152064,58.152064 0 0 0 -5.45986,-1.99168 58.152064,58.152064 0 0 0 -5.63227,-1.43797 58.152064,58.152064 0 0 0 -5.74787,-0.87009 A 58.152064,58.152064 0 0 0 256,198.30909 Z m 0,8.30744 a 49.844626,49.844626 0 0 1 4.97716,0.24946 49.844626,49.844626 0 0 1 4.92443,0.74435 49.844626,49.844626 0 0 1 4.82911,1.23313 49.844626,49.844626 0 0 1 4.67902,1.70773 49.844626,49.844626 0 0 1 4.48633,2.16813 49.844626,49.844626 0 0 1 4.24905,2.60419 49.844626,49.844626 0 0 1 3.9651,3.01388 49.844626,49.844626 0 0 1 3.64666,3.3972 49.844626,49.844626 0 0 1 3.28769,3.742 49.844626,49.844626 0 0 1 2.89827,4.05435 49.844626,49.844626 0 0 1 2.47844,4.32002 49.844626,49.844626 0 0 1 2.0363,4.54921 49.844626,49.844626 0 0 1 1.56981,4.72771 49.844626,49.844626 0 0 1 1.09117,4.86155 49.844626,49.844626 0 0 1 0.60034,4.94674 49.844626,49.844626 0 0 1 0.12575,3.52498 49.844626,49.844626 0 0 1 -0.24947,4.97716 49.844626,49.844626 0 0 1 -0.74434,4.92443 49.844626,49.844626 0 0 1 -1.23314,4.8291 49.844626,49.844626 0 0 1 -1.70773,4.67902 49.844626,49.844626 0 0 1 -2.16812,4.48634 49.844626,49.844626 0 0 1 -2.6042,4.24905 49.844626,49.844626 0 0 1 -3.01387,3.9651 49.844626,49.844626 0 0 1 -3.39721,3.64666 49.844626,49.844626 0 0 1 -3.742,3.28769 49.844626,49.844626 0 0 1 -4.05434,2.89827 49.844626,49.844626 0 0 1 -4.32002,2.47844 49.844626,49.844626 0 0 1 -4.54922,2.0363 49.844626,49.844626 0 0 1 -4.7277,1.56981 49.844626,49.844626 0 0 1 -4.86155,1.09116 49.844626,49.844626 0 0 1 -4.94674,0.60035 49.844626,49.844626 0 0 1 -3.52498,0.12574 49.844626,49.844626 0 0 1 -4.97716,-0.24946 49.844626,49.844626 0 0 1 -4.92443,-0.74435 49.844626,49.844626 0 0 1 -4.82911,-1.23313 49.844626,49.844626 0 0 1 -4.67902,-1.70773 49.844626,49.844626 0 0 1 -4.48633,-2.16813 49.844626,49.844626 0 0 1 -4.24905,-2.60419 49.844626,49.844626 0 0 1 -3.9651,-3.01388 49.844626,49.844626 0 0 1 -3.64666,-3.3972 49.844626,49.844626 0 0 1 -3.28769,-3.742 49.844626,49.844626 0 0 1 -2.89827,-4.05434 49.844626,49.844626 0 0 1 -2.47844,-4.32003 49.844626,49.844626 0 0 1 -2.0363,-4.54921 49.844626,49.844626 0 0 1 -1.56981,-4.7277 49.844626,49.844626 0 0 1 -1.09117,-4.86156 49.844626,49.844626 0 0 1 -0.60034,-4.94673 49.844626,49.844626 0 0 1 -0.12575,-3.52498 49.844626,49.844626 0 0 1 0.24947,-4.97717 49.844626,49.844626 0 0 1 0.74434,-4.92443 49.844626,49.844626 0 0 1 1.23314,-4.8291 49.844626,49.844626 0 0 1 1.70773,-4.67902 49.844626,49.844626 0 0 1 2.16812,-4.48634 49.844626,49.844626 0 0 1 2.6042,-4.24904 49.844626,49.844626 0 0 1 3.01387,-3.9651 49.844626,49.844626 0 0 1 3.39721,-3.64667 49.844626,49.844626 0 0 1 3.742,-3.28769 49.844626,49.844626 0 0 1 4.05434,-2.89826 49.844626,49.844626 0 0 1 4.32002,-2.47844 49.844626,49.844626 0 0 1 4.54922,-2.0363 49.844626,49.844626 0 0 1 4.7277,-1.56982 49.844626,49.844626 0 0 1 4.86155,-1.09116 49.844626,49.844626 0 0 1 4.94674,-0.60035 A 49.844626,49.844626 0 0 1 256,206.61653 Z" id="path1091" style="fill:#969696;fill-opacity:1;stroke:none;stroke-width:4.15371895;stroke-linecap:round;stroke-linejoin:miter;stroke-miterlimit:4;stroke-dasharray:none;stroke-opacity:1" ns1:connector-curvature="0" />
    <ns0:path d="m 247.69256,148.46447 c -11.79527,0 -16.61487,0 -33.22975,16.61487 -8.30744,8.30744 -8.30744,8.30744 -16.61487,8.30744 h -41.53719 c -9.20464,0 -16.61488,7.41023 -16.61488,16.61487 v 132.91901 c 0,9.20464 7.41024,16.61487 16.61488,16.61487 h 199.3785 c 9.20464,0 16.61488,-7.41023 16.61488,-16.61487 V 190.00165 c 0,-9.20464 -7.26901,-16.61487 -16.61488,-16.61487 h -41.53719 c -8.30743,0 -8.30743,0 -16.61487,-8.30744 -16.61488,-16.61487 -21.06734,-16.61487 -33.22975,-16.61487 z M 256,198.30909 c 1.93851,-1.3e-4 3.87581,0.0967 5.80466,0.29004 1.92926,0.19402 3.84762,0.48441 5.74787,0.87009 1.90022,0.38513 3.77999,0.86505 5.63227,1.43797 1.85202,0.57248 3.67424,1.2372 5.45986,1.99168 1.786,0.75524 3.53309,1.59935 5.23475,2.52915 1.70123,0.92952 3.3549,1.94352 4.95484,3.03821 1.60044,1.0944 3.14514,2.26816 4.62832,3.51687 1.48288,1.2493 2.90236,2.57198 4.2531,3.96308 1.3511,1.39067 2.63181,2.84805 3.83732,4.36667 1.2051,1.51856 2.3335,3.09643 3.38099,4.7277 1.0475,1.63142 2.01277,3.31421 2.89218,5.04206 0.87894,1.72792 1.67091,3.4987 2.37298,5.30572 0.70274,1.80717 1.31467,3.64836 1.83347,5.51666 0.51889,1.86852 0.94399,3.76183 1.2737,5.67283 0.32928,1.91052 0.56282,3.83632 0.69973,5.77018 0.0972,1.3689 0.1459,2.74081 0.14602,4.11316 1.4e-4,1.93851 -0.0967,3.87581 -0.29003,5.80465 -0.19402,1.92927 -0.48442,3.84762 -0.87009,5.74788 -0.38513,1.90022 -0.86505,3.77999 -1.43798,5.63226 -0.57247,1.85202 -1.23719,3.67425 -1.99167,5.45987 -0.75524,1.78599 -1.59935,3.53309 -2.52915,5.23474 -0.92952,1.70123 -1.94352,3.35491 -3.03822,4.95485 -1.0944,1.60044 -2.26816,3.14513 -3.51687,4.62831 -1.24929,1.48289 -2.57197,2.90236 -3.96307,4.25311 -1.39068,1.3511 -2.84805,2.63181 -4.36667,3.83732 -1.51856,1.2051 -3.09643,2.3335 -4.7277,3.38098 -1.63143,1.04751 -3.31421,2.01278 -5.04207,2.89218 -1.72791,0.87894 -3.49869,1.67092 -5.30572,2.37298 -1.80717,0.70275 -3.64835,1.31468 -5.51665,1.83347 -1.86852,0.5189 -3.76183,0.944 -5.67283,1.27371 -1.91053,0.32928 -3.83632,0.56282 -5.77018,0.69973 -1.3689,0.0972 -2.74081,0.1459 -4.11316,0.14602 -1.93851,1.4e-4 -3.87581,-0.0967 -5.80466,-0.29003 -1.92926,-0.19402 -3.84762,-0.48442 -5.74787,-0.87009 -1.90022,-0.38514 -3.77999,-0.86506 -5.63227,-1.43798 -1.85202,-0.57247 -3.67424,-1.23719 -5.45986,-1.99168 -1.786,-0.75524 -3.53309,-1.59934 -5.23475,-2.52914 -1.70123,-0.92952 -3.3549,-1.94353 -4.95484,-3.03822 -1.60044,-1.0944 -3.14514,-2.26816 -4.62832,-3.51687 -1.48288,-1.24929 -2.90236,-2.57197 -4.2531,-3.96307 -1.3511,-1.39068 -2.63181,-2.84805 -3.83732,-4.36667 -1.2051,-1.51856 -2.3335,-3.09644 -3.38099,-4.7277 -1.0475,-1.63143 -2.01277,-3.31422 -2.89218,-5.04207 -0.87894,-1.72791 -1.67091,-3.4987 -2.37298,-5.30572 -0.70274,-1.80717 -1.31467,-3.64836 -1.83347,-5.51666 -0.51889,-1.86852 -0.94399,-3.76182 -1.2737,-5.67283 -0.32928,-1.91052 -0.56282,-3.83632 -0.69973,-5.77018 -0.0972,-1.3689 -0.1459,-2.74081 -0.14602,-4.11315 -1.4e-4,-1.93851 0.0967,-3.87582 0.29003,-5.80466 0.19402,-1.92927 0.48442,-3.84762 0.87009,-5.74787 0.38513,-1.90023 0.86505,-3.77999 1.43798,-5.63227 0.57247,-1.85202 1.23719,-3.67424 1.99167,-5.45987 0.75524,-1.78599 1.59935,-3.53309 2.52915,-5.23474 0.92952,-1.70123 1.94352,-3.35491 3.03822,-4.95485 1.0944,-1.60044 2.26816,-3.14513 3.51687,-4.62831 1.24929,-1.48289 2.57197,-2.90236 3.96307,-4.25311 1.39068,-1.3511 2.84805,-2.6318 4.36667,-3.83732 1.51856,-1.20509 3.09643,-2.33349 4.7277,-3.38098 1.63143,-1.0475 3.31421,-2.01278 5.04207,-2.89218 1.72791,-0.87894 3.49869,-1.67092 5.30572,-2.37298 1.80717,-0.70275 3.64835,-1.31467 5.51665,-1.83347 1.86852,-0.51889 3.76183,-0.944 5.67283,-1.27371 1.91053,-0.32927 3.83632,-0.56282 5.77018,-0.69972 1.3689,-0.0972 2.74081,-0.1459 4.11316,-0.14603 z" id="rect1085" style="fill:#323232;fill-opacity:1;stroke:none;stroke-width:4.15371895;stroke-linecap:round;stroke-linejoin:miter;stroke-miterlimit:4;stroke-dasharray:none;stroke-opacity:1" ns2:nodetypes="sssssssssssssssccccccccccccccccccccccccccccccccccccccccccccccccccccccccccccccccc" ns1:connector-curvature="0" />
    <ns0:circle cx="256" cy="256.46115" id="path1108" r="16.614876" style="fill:#455289;fill-opacity:1;stroke:none;stroke-width:4.15371895;stroke-linecap:round;stroke-linejoin:miter;stroke-miterlimit:4;stroke-dasharray:none;stroke-opacity:1" />
    <ns0:circle cx="272.61487" cy="239.84628" id="path1112" r="12.461157" style="fill:#fffff7;fill-opacity:1;stroke:none;stroke-width:4.15371895;stroke-linecap:round;stroke-linejoin:miter;stroke-miterlimit:4;stroke-dasharray:none;stroke-opacity:1" />
  </svg>