<?xml version='1.0' encoding='utf-8'?>
<svg xmlns:ns0="http://www.w3.org/2000/svg" xmlns:ns1="http://www.inkscape.org/namespaces/inkscape" xmlns:ns2="http://sodipodi.sourceforge.net/DTD/sodipodi-0.dtd" height="512" version="1.1" width="512" xmlns="http://www.w3.org/2000/svg"><ns0:circle cx="256" cy="256" id="path1053" r="248" style="fill:none;fill-opacity:1;stroke:#323232;stroke-width:4;stroke-linecap:round;stroke-linejoin:miter;stroke-miterlimit:4;stroke-dasharray:none;stroke-opacity:1" />
    <ns0:rect height="159.75537" id="rect1055" rx="8.0707979" ry="7.9877682" style="fill:#323232;fill-opacity:1;stroke:none;stroke-width:4.01458788;stroke-linecap:round;stroke-linejoin:miter;stroke-miterlimit:4;stroke-dasharray:none;stroke-opacity:1" transform="matrix(0.9912279,0.13216376,-0.25038283,0.96814691,0,0)" width="242.12393" x="227.26022" y="148.83875" />
    <ns0:rect height="127.80429" id="rect1057" style="fill:#646464;fill-opacity:1;stroke:none;stroke-width:4.01458788;stroke-linecap:round;stroke-linejoin:miter;stroke-miterlimit:4;stroke-dasharray:none;stroke-opacity:1" transform="matrix(0.9912279,0.13216376,-0.25038283,0.96814691,0,0)" width="177.55756" x="275.685" y="164.81429" />
    <ns0:path d="m 195.99999,239.2 a 15.058736,17.000098 58.487468 0 0 -20,13.33333 15.058736,17.000098 58.487468 0 0 12,17.6 15.058736,17.000098 58.487468 0 0 20,-13.33333 15.058736,17.000098 58.487468 0 0 -12,-17.6 z m -2,7.73333 a 7.5293681,8.5000492 58.487468 0 1 6,8.8 7.5293681,8.5000492 58.487468 0 1 -10,6.66667 7.5293681,8.5000492 58.487468 0 1 -6,-8.8 7.5293681,8.5000492 58.487468 0 1 10,-6.66667 z" id="path1059" style="fill:#ffffff;fill-opacity:1;stroke:none;stroke-width:4;stroke-linecap:round;stroke-linejoin:miter;stroke-miterlimit:4;stroke-dasharray:none;stroke-opacity:1" ns1:connector-curvature="0" />
    <ns0:ellipse cx="251.47263" cy="196.76535" id="path1064" rx="8.0707979" ry="7.9877682" style="fill:#ffffff;fill-opacity:1;stroke:none;stroke-width:4.01458788;stroke-linecap:round;stroke-linejoin:miter;stroke-miterlimit:4;stroke-dasharray:none;stroke-opacity:1" transform="matrix(0.9912279,0.13216376,-0.25038283,0.96814691,0,0)" />
    <ns0:ellipse cx="251.47263" cy="260.66751" id="path1068" rx="8.0707979" ry="7.9877682" style="fill:#ffffff;fill-opacity:1;stroke:none;stroke-width:4.01458788;stroke-linecap:round;stroke-linejoin:miter;stroke-miterlimit:4;stroke-dasharray:none;stroke-opacity:1" transform="matrix(0.9912279,0.13216376,-0.25038283,0.96814691,0,0)" />
    <ns0:path d="m 136.41044,171.35373 -35.90289,117.98942 22.31159,6.03455 28.4657,-120.00094 c 0.98514,-4.153 -1.91975,-8.50046 -5.42568,-9.4487 -3.50593,-0.94824 -8.20619,1.34228 -9.44872,5.42567 z" id="path1080" style="fill:#323232;fill-opacity:1;stroke:none;stroke-width:3.85221148;stroke-linecap:round;stroke-linejoin:miter;stroke-miterlimit:4;stroke-dasharray:none;stroke-opacity:1" ns2:nodetypes="sccsss" ns1:connector-curvature="0" />
    <ns0:path d="m 98.49602,296.78035 5.12126,25.32887 17.19034,-19.29432 z" id="path1078" style="fill:#323232;fill-opacity:1;stroke:none;stroke-width:3.85221148;stroke-linecap:round;stroke-linejoin:miter;stroke-miterlimit:4;stroke-dasharray:none;stroke-opacity:1" ns1:connector-curvature="0" />
    <ns0:path d="m 98.49602,296.78035 22.3116,6.03455 2.01152,-7.4372 -22.31159,-6.03455 z" id="rect1072" style="fill:#f26337;fill-opacity:1;stroke:none;stroke-width:3.85221148;stroke-linecap:round;stroke-linejoin:miter;stroke-miterlimit:4;stroke-dasharray:none;stroke-opacity:1" ns1:connector-curvature="0" />
  </svg>