<?xml version='1.0' encoding='utf-8'?>
<svg xmlns:ns0="http://www.w3.org/2000/svg" xmlns:ns1="http://www.inkscape.org/namespaces/inkscape" xmlns:ns2="http://sodipodi.sourceforge.net/DTD/sodipodi-0.dtd" height="512" version="1.1" width="512" xmlns="http://www.w3.org/2000/svg"><ns0:path d="m 284.25,393.75 65.5,-169.75 6,4.25 c 0,0 -61.75,160 -65.5,170.5 -3.75,10.5 -8.49569,15.25 -15.75,15.25 h -31.75 c -10.81029,0 -11.93148,-14.01884 -4,-14 l 32.08484,0.0762 c 8.61381,0 10.57598,-1.82613 13.41516,-6.3262 z" id="path5144" style="display:inline;fill:#323232;fill-opacity:1;fill-rule:evenodd;stroke:none;stroke-width:1px;stroke-linecap:butt;stroke-linejoin:miter;stroke-opacity:1" ns2:nodetypes="cccsssscc" ns1:connector-curvature="0" />
    <ns0:path d="m 152.74023,354.60938 -19.17382,-13.40235 c -2.11198,5.05791 -3.61205,9.21916 -4.13086,11.38086 -0.66458,2.76905 -0.52724,4.95365 0.20312,6.61523 l 4.60547,3.21876 c 2.36293,0.32151 5.44588,-0.14923 9.27344,-1.63086 2.79416,-1.08162 5.93008,-3.32914 9.22265,-6.18164 z" id="path5184" style="display:inline;fill:#323232;fill-opacity:1;fill-rule:evenodd;stroke:none;stroke-width:1px;stroke-linecap:butt;stroke-linejoin:miter;stroke-opacity:1" ns1:connector-curvature="0" />
    <ns0:path d="m 140.51758,326.37695 c -2.85595,5.41311 -5.11877,10.44171 -6.95117,14.83008 l 19.17382,13.40235 c 3.72441,-3.22663 7.65417,-7.24613 11.60743,-11.57618 z" id="path5181" style="display:inline;fill:#c8c8c8;fill-opacity:1;fill-rule:evenodd;stroke:none;stroke-width:1px;stroke-linecap:butt;stroke-linejoin:miter;stroke-opacity:1" ns1:connector-curvature="0" />
    <ns0:path d="m 175.76172,330.26953 -26.50586,-18.52539 c -3.29853,4.87212 -6.18924,9.80141 -8.73828,14.63281 l 23.83008,16.65625 c 4.02973,-4.41381 7.6926,-8.54543 11.41406,-12.76367 z" id="path5179" style="display:inline;fill:#455289;fill-opacity:1;fill-rule:evenodd;stroke:none;stroke-width:1px;stroke-linecap:butt;stroke-linejoin:miter;stroke-opacity:1" ns1:connector-curvature="0" />
    <ns0:path d="m 181.75977,286.40625 c -3.39191,-0.0608 -7.01671,0.55745 -10.64063,2.14844 -8.36569,5.52234 -15.70049,14.08667 -21.86328,23.18945 l 26.50586,18.52539 c 2.0602,-2.33522 4.47724,-5.11022 6.31836,-7.06641 11.3137,-12.02082 17.32417,-19.80013 17.67773,-25.81054 0.26517,-4.50781 -7.82234,-10.80403 -17.99804,-10.98633 z" id="path5127" style="display:inline;fill:#c8c8c8;fill-opacity:1;fill-rule:evenodd;stroke:none;stroke-width:1px;stroke-linecap:butt;stroke-linejoin:miter;stroke-opacity:1" ns1:connector-curvature="0" />
    <ns0:path d="m 243.96875,354.64453 -23.23633,-10.5625 c -0.77828,3.6865 -1.37236,6.829 -1.82226,8.80859 -0.78492,3.64237 0.0869,7.33006 2.06836,9.97657 l 7.83203,3.56054 c 2.12934,-0.17866 4.48554,-0.98329 7.04492,-2.80859 2.09106,-1.61582 4.97375,-4.98015 8.11328,-8.97461 z" id="path5194" style="fill:#323232;fill-opacity:1;fill-rule:evenodd;stroke:none;stroke-width:1px;stroke-linecap:butt;stroke-linejoin:miter;stroke-opacity:1" ns1:connector-curvature="0" />
    <ns0:path d="m 223.32617,333.41602 c -1.11249,3.86563 -1.91709,7.46086 -2.59375,10.66601 l 23.23633,10.5625 c 2.11341,-2.68891 4.2897,-5.52134 6.62109,-8.83398 z" id="path5191" style="fill:#c8c8c8;fill-opacity:1;fill-rule:evenodd;stroke:none;stroke-width:1px;stroke-linecap:butt;stroke-linejoin:miter;stroke-opacity:1" ns1:connector-curvature="0" />
    <ns0:path d="m 260.0918,331.45508 -30.5625,-13.89453 c -2.74246,5.25483 -4.71282,10.67701 -6.20313,15.85547 l 27.26367,12.39453 c 3.15133,-4.47768 6.31503,-9.26519 9.50196,-14.35547 z" id="path5189" style="fill:#455289;fill-opacity:1;fill-rule:evenodd;stroke:none;stroke-width:1px;stroke-linecap:butt;stroke-linejoin:miter;stroke-opacity:1" ns1:connector-curvature="0" />
    <ns0:path d="m 243.59766,271.58398 c 0,0 -2.12065,14.49589 -6.36328,34.64844 -3.1076,3.39639 -5.59758,7.28992 -7.70508,11.32813 l 30.5625,13.89453 c 3.98111,-6.35879 7.84287,-12.80929 11.08398,-18.85938 12.02081,-14.14213 6.36328,-36.0625 6.36328,-36.0625 z" id="path5125" style="fill:#c8c8c8;fill-opacity:1;fill-rule:evenodd;stroke:none;stroke-width:1px;stroke-linecap:butt;stroke-linejoin:miter;stroke-opacity:1" ns1:connector-curvature="0" />
    <ns0:circle cx="256" cy="256" id="path5051" r="248" style="fill:none;fill-opacity:1;stroke:#323232;stroke-width:4;stroke-linecap:round;stroke-miterlimit:4;stroke-dasharray:none;stroke-opacity:1" />
    <ns0:path d="m 197.63635,218.90424 c -15.55635,37.47666 -20.15255,57.27565 -26.51651,69.65002 12.72792,9.19239 21.2132,17.32411 31.46625,16.26345 5.3033,-8.83883 15.2028,-22.62741 30.05204,-35.35534 5.3033,10.25305 7.77818,18.38478 7.07107,23.68808 14.49569,-14.49569 27.22361,-10.96015 33.58757,-3.88909 6.36396,7.07107 0.35355,17.32412 -2.12132,23.33453 11.66726,-7.07107 12.37437,-7.42462 13.43503,-24.39519 1.06066,-16.97056 2.12132,-36.416 2.12132,-42.77996 -38.18377,5.3033 -62.9325,-10.96015 -89.09545,-26.5165 z" id="path5090" style="display:inline;fill:#323232;fill-opacity:1;fill-rule:evenodd;stroke:none;stroke-width:1px;stroke-linecap:butt;stroke-linejoin:miter;stroke-opacity:1" ns1:connector-curvature="0" />
    <ns0:path d="m 305.82368,276.88699 c -29.69848,-7.77817 -43.13351,-19.09187 -51.97235,-30.05203 -30.75914,-9.8995 -37.47665,-14.84924 -56.21498,-27.93072 -4.24265,-13.08147 55.68468,-67.35191 81.67083,-69.29647 25.98615,-1.94456 60.10408,-2.12132 68.2358,6.01041 8.13173,8.13173 5.65686,18.38478 4.24264,23.68808 4.94975,6.01041 13.08148,6.36397 9.8995,20.85965 -3.18198,14.49568 -17.32412,4.59619 -25.10229,0.35355 -7.77818,-4.24264 -8.48528,-9.19239 -11.66726,-5.65685 -3.18198,3.53553 -28.63783,37.1231 -35.00179,40.65864 20.15254,9.54594 28.99138,26.87006 28.99138,26.87006 -1.76777,14.49568 -13.08148,14.49568 -13.08148,14.49568 z" id="path5113" style="fill:#c8c8c8;fill-opacity:1;fill-rule:evenodd;stroke:none;stroke-width:1px;stroke-linecap:butt;stroke-linejoin:miter;stroke-opacity:1" ns2:nodetypes="cccsscsscccc" ns1:connector-curvature="0" />
    <ns0:ellipse cx="305.64688" cy="146.60255" id="path5066" rx="23.511299" ry="24.218409" style="fill:#969696;fill-opacity:1;stroke:none;stroke-width:4;stroke-linecap:round;stroke-miterlimit:4;stroke-dasharray:none;stroke-opacity:1" />
    <ns0:path d="m 291.68155,140.76893 h 43.84062 c -4.59619,-16.26345 -10.15652,-27.57716 -29.62006,-27.57716 -15.20691,0 -26.88782,6.33386 -26.88782,27.31676 0,12.74755 7.13909,16.53122 12.66726,18.29163 z" id="path5064" style="fill:#455289;fill-opacity:1;fill-rule:evenodd;stroke:none;stroke-width:1px;stroke-linecap:butt;stroke-linejoin:miter;stroke-opacity:1" ns2:nodetypes="ccsscc" ns1:connector-curvature="0" />
    <ns0:path d="m 367.15111,198.42674 5.39888,20.14886 c 3.22853,12.04904 -3.65171,21.55115 -12.29247,23.79119 -8.97181,2.32582 -19.72679,-3.97792 -23.15721,-15.39055 l -5.12435,-19.12435 c -1.67292,-6.24343 2.00658,-12.6165 8.25,-14.28942 l 12.63574,-3.38573 c 6.24341,-1.67292 12.61649,2.00657 14.28941,8.25 z" id="rect5115" style="fill:#323232;fill-opacity:1;stroke:none;stroke-width:4;stroke-linecap:round;stroke-miterlimit:4;stroke-dasharray:none;stroke-opacity:1" ns2:nodetypes="ssacssss" ns1:connector-curvature="0" />
    <ns0:path d="m 323.00245,256.00793 17.64954,11.11836 c 10.55445,6.64879 11.96051,18.29572 7.14133,25.80943 -5.00385,7.80156 -17.17854,10.48179 -27.44881,4.43717 L 303.5924,286.81985 c -5.46898,-3.44519 -7.09822,-10.62157 -3.65303,-16.09054 l 6.97255,-11.06836 c 3.44518,-5.46896 10.62155,-7.09822 16.09053,-3.65302 z" id="path5118" style="fill:#323232;fill-opacity:1;stroke:none;stroke-width:4;stroke-linecap:round;stroke-miterlimit:4;stroke-dasharray:none;stroke-opacity:1" ns2:nodetypes="ssacssss" ns1:connector-curvature="0" />
    <ns0:path d="m 229.00712,355.1814 a 14,14 0 0 0 -19.12435,5.12436 14,14 0 0 0 3.47336,17.98396 l -5.08106,8.80065 a 2.0002,2.0002 0 1 0 3.4641,2 l 5.0791,-8.79726 a 14,14 0 0 0 17.31321,-5.98735 14,14 0 0 0 -5.12436,-19.12436 z" id="path5161" style="fill:#323232;fill-opacity:1;stroke:none;stroke-width:4;stroke-linecap:round;stroke-miterlimit:4;stroke-dasharray:none;stroke-opacity:1" ns1:connector-curvature="0" />
    <ns0:path d="m 138.00712,354.6814 a 14,14 0 0 0 -19.12435,5.12436 14,14 0 0 0 3.47336,17.98396 l -5.08106,8.80065 a 2.0002,2.0002 0 1 0 3.4641,2 l 5.0791,-8.79726 a 14,14 0 0 0 17.31321,-5.98735 14,14 0 0 0 -5.12436,-19.12436 z" id="path5168" style="fill:#323232;fill-opacity:1;stroke:none;stroke-width:4;stroke-linecap:round;stroke-miterlimit:4;stroke-dasharray:none;stroke-opacity:1" ns1:connector-curvature="0" />
    <ns0:rect height="10.5" id="rect5198" ry="0" style="fill:#323232;fill-opacity:1;stroke:none;stroke-width:3.4876833;stroke-linecap:round;stroke-miterlimit:4;stroke-dasharray:none;stroke-opacity:1" width="26.5" x="314.5" y="403.5" />
  </svg>