<?xml version='1.0' encoding='utf-8'?>
<svg xmlns:ns0="http://www.w3.org/2000/svg" xmlns:ns1="http://www.inkscape.org/namespaces/inkscape" xmlns:ns2="http://sodipodi.sourceforge.net/DTD/sodipodi-0.dtd" height="512" version="1.1" width="512" xmlns="http://www.w3.org/2000/svg"><ns0:circle cx="256" cy="256" id="path955" r="248" style="fill:none;fill-opacity:1;stroke:#323232;stroke-width:4;stroke-linejoin:round;stroke-miterlimit:4;stroke-dasharray:none;stroke-opacity:1" />
    <ns0:path d="m 93.30425,343.44608 -13.042185,-7.52991 -2.26344,18.98021 z" id="path990" style="fill:#323232;fill-opacity:1;stroke:none;stroke-width:4.39226532;stroke-linejoin:round;stroke-miterlimit:4;stroke-dasharray:none;stroke-opacity:1" ns2:nodetypes="cccc" ns1:connector-curvature="0" />
    <ns0:path d="m 81.960105,321.68129 -1.69804,14.23488 13.042185,7.52991 11.47873,-8.58799 z" id="path974" style="fill:#c8c8c8;fill-opacity:1;stroke:none;stroke-width:4.39226532;stroke-linejoin:round;stroke-miterlimit:4;stroke-dasharray:none;stroke-opacity:1" ns2:nodetypes="ccccc" ns1:connector-curvature="0" />
    <ns0:path d="M 186.03989,194.11699 163.21701,180.9402 81.960105,321.68129 104.78298,334.85809 Z" id="path985" style="fill:#646464;fill-opacity:1;stroke:none;stroke-width:4.39226532;stroke-linejoin:round;stroke-miterlimit:4;stroke-dasharray:none;stroke-opacity:1" ns2:nodetypes="ccccc" ns1:connector-curvature="0" />
    <ns0:path d="m 172.00155,165.72495 -8.78453,15.21525 22.82288,13.17679 8.78453,-15.21525 z" id="path979" style="fill:#c8c8c8;fill-opacity:1;stroke:none;stroke-width:4.39226532;stroke-linejoin:round;stroke-miterlimit:4;stroke-dasharray:none;stroke-opacity:1" ns2:nodetypes="ccccc" ns1:connector-curvature="0" />
    <ns0:path d="m 192.19753,157.09809 c -6.32195,-3.64997 -14.34988,-1.4989 -17.99986,4.82305 l -2.19613,3.80381 22.82288,13.17679 2.19613,-3.80381 c 3.64998,-6.32194 1.4989,-14.34987 -4.82302,-17.99984 z" id="rect968" style="fill:#f26337;fill-opacity:1;stroke:none;stroke-width:4.39226532;stroke-linejoin:round;stroke-miterlimit:4;stroke-dasharray:none;stroke-opacity:1" ns2:nodetypes="ssccss" ns1:connector-curvature="0" />
    <ns0:path d="m 152.1179,304.85106 c -4.68607,0.76922 -8.84561,2.50272 -13.39219,10.01914 -6.96339,11.51193 -8.14751,25.09258 2.25384,44.41114 -1.87691,-22.00461 16.68256,-17.05351 24.37286,-29.03821 4.14689,-6.46263 4.53995,-11.49678 1.98073,-16.60755 z" id="path992" style="fill:#455289;fill-opacity:1;fill-rule:evenodd;stroke:none;stroke-width:1.09806633px;stroke-linecap:butt;stroke-linejoin:miter;stroke-opacity:1" ns2:nodetypes="cscscc" ns1:connector-curvature="0" />
    <ns0:path d="m 197.28996,270.07015 -22.42169,-12.94517 c -11.21621,20.6732 -22.75037,47.72608 -22.75037,47.72608 l 15.21525,8.78453 c 0,0 17.66141,-23.51532 29.95681,-43.56544 z" id="path999" style="fill:#c8c8c8;fill-opacity:1;fill-rule:evenodd;stroke:none;stroke-width:1.09806633px;stroke-linecap:butt;stroke-linejoin:miter;stroke-opacity:1" ns1:connector-curvature="0" />
    <ns0:path d="m 247.57083,157.09079 c -11.54871,-6.35066 -52.0399,63.78215 -69.60896,94.21265 -1.02254,1.77109 -2.05626,3.90957 -3.09361,5.82153 l 22.42169,12.94517 c 1.13712,-1.85435 2.47226,-3.81882 3.4948,-5.5899 C 218.35381,234.04973 259.1169,163.44 247.57083,157.09079 Z" id="path994" style="fill:#646464;fill-opacity:1;fill-rule:evenodd;stroke:none;stroke-width:1.09806633px;stroke-linecap:butt;stroke-linejoin:miter;stroke-opacity:1" ns1:connector-curvature="0" />
    <ns0:circle cx="340.7702" cy="-6.5531693" id="path1005" r="8.7845306" style="fill:#646464;fill-opacity:1;stroke:none;stroke-width:2.92817688;stroke-linejoin:round;stroke-miterlimit:4;stroke-dasharray:none;stroke-opacity:1" transform="rotate(30)" />
    <ns0:path d="m 190.78177,351.09676 13.1768,-22.82288" id="path1007" style="fill:none;fill-rule:evenodd;stroke:#323232;stroke-width:8.78453064;stroke-linecap:round;stroke-linejoin:miter;stroke-miterlimit:4;stroke-dasharray:none;stroke-opacity:1" ns1:connector-curvature="0" />
    <ns0:path d="m 196.64517,318.97974 19.01906,10.98066 -10.68643,14.11718 -15.21526,-8.78453 z" id="rect1009" style="fill:#646464;fill-opacity:1;stroke:none;stroke-width:4.39226532;stroke-linejoin:round;stroke-miterlimit:4;stroke-dasharray:none;stroke-opacity:1" ns2:nodetypes="ccccc" ns1:connector-curvature="0" />
    <ns0:path d="m 287.78467,161.12149 19.01906,10.98066 -90.04143,155.95634 -19.01906,-10.98066 z" id="rect1001" style="fill:#c8c8c8;fill-opacity:1;stroke:#646464;stroke-width:4.39226532;stroke-linejoin:miter;stroke-miterlimit:4;stroke-dasharray:none;stroke-opacity:1" ns2:nodetypes="ccccc" ns1:connector-curvature="0" />
    <ns0:path d="m 398.96018,211.56939 -62.77967,-36.24586 -85.64917,148.34872 62.77967,36.24585 z" id="path1039" style="fill:#969696;fill-opacity:1;stroke:none;stroke-width:4.39226532;stroke-linejoin:miter;stroke-miterlimit:4;stroke-dasharray:none;stroke-opacity:1" ns2:nodetypes="ccccc" ns1:connector-curvature="0" />
    <ns0:path d="m 398.96018,211.56939 -85.64917,148.34871 20.90423,12.06907 85.64918,-148.34871 z" id="rect1017" style="fill:#646464;fill-opacity:1;stroke:none;stroke-width:4.39226532;stroke-linejoin:miter;stroke-miterlimit:4;stroke-dasharray:none;stroke-opacity:1" ns2:nodetypes="ccccc" ns1:connector-curvature="0" />
    <ns0:path d="m 250.53134,323.67225 83.6839,48.31492" id="path1020" style="fill:none;fill-rule:evenodd;stroke:#c8c8c8;stroke-width:4.50207186;stroke-linecap:round;stroke-linejoin:miter;stroke-miterlimit:4;stroke-dasharray:none;stroke-opacity:1" ns1:connector-curvature="0" />
    <ns0:path d="m 336.18051,175.32353 83.68391,48.31493" id="path1022" style="fill:none;fill-rule:evenodd;stroke:#c8c8c8;stroke-width:4.50207186;stroke-linecap:round;stroke-linejoin:miter;stroke-miterlimit:4;stroke-dasharray:none;stroke-opacity:1" ns2:nodetypes="cc" ns1:connector-curvature="0" />
    <ns0:path d="m 344.8862,177.81389 31.60741,-2.03846 22.82289,13.17679 14.03834,28.39205 z" id="path1024" style="fill:#969696;fill-opacity:1;fill-rule:evenodd;stroke:none;stroke-width:1.09806633px;stroke-linecap:butt;stroke-linejoin:miter;stroke-opacity:1" ns2:nodetypes="ccccc" ns1:connector-curvature="0" />
    <ns0:path d="m 401.67031,149.73719 c -4.21462,-2.43331 -9.56657,-0.99926 -11.9999,3.21536 l -8.78453,15.21525 22.82288,13.17679 8.78453,-15.21524 c 2.43332,-4.21463 0.99927,-9.56658 -3.21536,-11.9999 z" id="rect1026" style="fill:#969696;fill-opacity:1;stroke:none;stroke-width:4.50207186;stroke-linecap:round;stroke-linejoin:miter;stroke-miterlimit:4;stroke-dasharray:none;stroke-opacity:1" ns1:connector-curvature="0" />
    <ns0:path d="m 380.88588,168.1678 22.82288,13.17679 -4.39226,7.60763 -22.82289,-13.17679 z" id="rect1033" style="fill:#c8c8c8;fill-opacity:1;stroke:none;stroke-width:4.50207186;stroke-linecap:round;stroke-linejoin:miter;stroke-miterlimit:4;stroke-dasharray:none;stroke-opacity:1" ns1:connector-curvature="0" />
    <ns0:rect height="70.276245" id="rect1046" style="fill:#455289;fill-opacity:1;stroke:none;stroke-width:4.50207186;stroke-linecap:round;stroke-linejoin:miter;stroke-miterlimit:4;stroke-dasharray:none;stroke-opacity:1" transform="rotate(30)" width="61.491714" x="378.75668" y="16.211176" />
    <ns0:circle cx="422.50983" cy="-57.98214" id="path1048" r="8.7845306" style="fill:#323232;fill-opacity:1;stroke:none;stroke-width:4.50207186;stroke-linecap:round;stroke-linejoin:miter;stroke-miterlimit:4;stroke-dasharray:none;stroke-opacity:1" transform="rotate(30)" />
  </svg>