<?xml version='1.0' encoding='utf-8'?>
<svg xmlns:ns0="http://www.w3.org/2000/svg" xmlns:ns1="http://www.inkscape.org/namespaces/inkscape" xmlns:ns2="http://sodipodi.sourceforge.net/DTD/sodipodi-0.dtd" height="512" version="1.1" width="512" xmlns="http://www.w3.org/2000/svg"><ns0:circle cx="256" cy="256" id="path911" r="248" style="fill:none;fill-opacity:1;stroke:#323232;stroke-width:4;stroke-linejoin:round;stroke-miterlimit:4;stroke-dasharray:none;stroke-opacity:1" />
    <ns0:path d="m 362.95475,149.04525 c -4.90261,-4.9026 -24.51304,-4.9026 -44.12347,14.70782 l -39.22085,39.22086 c -4.77541,4.77541 -4.90261,4.90261 -53.92868,-4.90261 -81.71011,-16.34202 -83.34432,-14.70781 -88.24692,-9.80521 l -4.90261,4.90261 C 230.58436,252 230.58436,252 225.68175,256.9026 l -39.22086,39.22086 c -4.9026,4.90261 -4.9026,4.90261 -34.31824,4.90261 -19.61043,0 -19.61043,0 -24.51304,4.9026 l -4.90261,4.90261 c 44.12347,24.51304 45.34912,25.73869 40.44651,30.6413 -4.90261,4.90261 -6.12826,13.48217 -6.12826,13.48217 0,0 8.57956,-1.22565 13.48217,-6.12826 4.90261,-4.90261 6.12826,-3.67696 30.6413,40.44651 l 4.90261,-4.90261 c 4.9026,-4.90261 4.9026,-4.90261 4.9026,-24.51304 0,-29.41564 0,-29.41564 4.90261,-34.31824 L 255.0974,286.31825 C 260,281.41564 260,281.41564 318.83128,379.46778 l 4.90261,-4.90261 c 4.9026,-4.9026 6.53681,-6.53681 -9.80521,-88.24692 -9.80522,-49.02607 -9.67802,-49.15327 -4.90261,-53.92868 l 39.22086,-39.22085 c 19.61042,-19.61043 19.61042,-39.22086 14.70782,-44.12347 z" id="path913" style="fill:#455289;fill-opacity:1;fill-rule:evenodd;stroke:none;stroke-width:0.86666667px;stroke-linecap:butt;stroke-linejoin:miter;stroke-opacity:1" ns2:nodetypes="ssssscsssscscscsssscsssss" ns1:connector-curvature="0" />
  </svg>