<?xml version='1.0' encoding='utf-8'?>
<svg xmlns:ns0="http://www.w3.org/2000/svg" xmlns:ns1="http://www.inkscape.org/namespaces/inkscape" height="512" version="1.1" width="512" xmlns="http://www.w3.org/2000/svg"><ns0:circle cx="256" cy="256" id="path5201" r="248" style="fill:none;fill-opacity:1;stroke:#323232;stroke-width:4;stroke-linecap:round;stroke-miterlimit:4;stroke-dasharray:none;stroke-opacity:1" />
    <ns0:path d="m 365.23277,363.0369 19.24219,-24.07378 0.86257,0.68944 c 1.03539,0.82759 1.98742,1.48369 3.03355,2.78315 1.04614,1.29947 1.8842,3.93 1.46132,5.90757 -0.84578,3.95514 -2.91055,5.51517 -6.22089,9.65672 -3.31035,4.14157 -4.37707,6.49932 -8.04864,8.1958 -1.8358,0.84823 -4.58632,0.61038 -6.08436,-0.12371 -1.49804,-0.73407 -2.34779,-1.51816 -3.38318,-2.34574 z" id="path5281" style="color:#000000;font-style:normal;font-variant:normal;font-weight:normal;font-stretch:normal;font-size:medium;line-height:normal;font-family:sans-serif;font-variant-ligatures:normal;font-variant-position:normal;font-variant-caps:normal;font-variant-numeric:normal;font-variant-alternates:normal;font-feature-settings:normal;text-indent:0;text-align:start;text-decoration:none;text-decoration-line:none;text-decoration-style:solid;text-decoration-color:#000000;letter-spacing:normal;word-spacing:normal;text-transform:none;writing-mode:lr-tb;direction:ltr;text-orientation:mixed;dominant-baseline:auto;baseline-shift:baseline;text-anchor:start;white-space:normal;shape-padding:0;clip-rule:nonzero;display:inline;overflow:visible;visibility:visible;opacity:1;isolation:auto;mix-blend-mode:normal;color-interpolation:sRGB;color-interpolation-filters:linearRGB;solid-color:#000000;solid-opacity:1;vector-effect:none;fill:#323232;fill-opacity:1;fill-rule:evenodd;stroke:none;stroke-width:9.60980988;stroke-linecap:butt;stroke-linejoin:miter;stroke-miterlimit:4;stroke-dasharray:none;stroke-dashoffset:0;stroke-opacity:1;color-rendering:auto;image-rendering:auto;shape-rendering:auto;text-rendering:auto;enable-background:accumulate" ns1:connector-curvature="0" ns1:transform-center-x="-121.58855" ns1:transform-center-y="96.849036" />
    <ns0:path d="m 353.21299,353.42947 28.26863,-16.85893 2.99334,2.39258 -19.24219,24.07378 z" id="path5299" style="color:#000000;font-style:normal;font-variant:normal;font-weight:normal;font-stretch:normal;font-size:medium;line-height:normal;font-family:sans-serif;font-variant-ligatures:normal;font-variant-position:normal;font-variant-caps:normal;font-variant-numeric:normal;font-variant-alternates:normal;font-feature-settings:normal;text-indent:0;text-align:start;text-decoration:none;text-decoration-line:none;text-decoration-style:solid;text-decoration-color:#000000;letter-spacing:normal;word-spacing:normal;text-transform:none;writing-mode:lr-tb;direction:ltr;text-orientation:mixed;dominant-baseline:auto;baseline-shift:baseline;text-anchor:start;white-space:normal;shape-padding:0;clip-rule:nonzero;display:inline;overflow:visible;visibility:visible;opacity:1;isolation:auto;mix-blend-mode:normal;color-interpolation:sRGB;color-interpolation-filters:linearRGB;solid-color:#000000;solid-opacity:1;vector-effect:none;fill:#969696;fill-opacity:1;fill-rule:evenodd;stroke:none;stroke-width:9.60980988;stroke-linecap:butt;stroke-linejoin:miter;stroke-miterlimit:4;stroke-dasharray:none;stroke-dashoffset:0;stroke-opacity:1;color-rendering:auto;image-rendering:auto;shape-rendering:auto;text-rendering:auto;enable-background:accumulate" ns1:connector-curvature="0" ns1:transform-center-x="-112.84398" ns1:transform-center-y="93.803715" />
    <ns0:path d="m 333.19549,337.42947 28.26863,-16.85893 20.0175,16 -28.26863,16.85893 z" id="path5296" style="color:#000000;font-style:normal;font-variant:normal;font-weight:normal;font-stretch:normal;font-size:medium;line-height:normal;font-family:sans-serif;font-variant-ligatures:normal;font-variant-position:normal;font-variant-caps:normal;font-variant-numeric:normal;font-variant-alternates:normal;font-feature-settings:normal;text-indent:0;text-align:start;text-decoration:none;text-decoration-line:none;text-decoration-style:solid;text-decoration-color:#000000;letter-spacing:normal;word-spacing:normal;text-transform:none;writing-mode:lr-tb;direction:ltr;text-orientation:mixed;dominant-baseline:auto;baseline-shift:baseline;text-anchor:start;white-space:normal;shape-padding:0;clip-rule:nonzero;display:inline;overflow:visible;visibility:visible;opacity:1;isolation:auto;mix-blend-mode:normal;color-interpolation:sRGB;color-interpolation-filters:linearRGB;solid-color:#000000;solid-opacity:1;vector-effect:none;fill:#f26337;fill-opacity:1;fill-rule:evenodd;stroke:none;stroke-width:9.60980988;stroke-linecap:butt;stroke-linejoin:miter;stroke-miterlimit:4;stroke-dasharray:none;stroke-dashoffset:0;stroke-opacity:1;color-rendering:auto;image-rendering:auto;shape-rendering:auto;text-rendering:auto;enable-background:accumulate" ns1:connector-curvature="0" ns1:transform-center-x="-101.33855" ns1:transform-center-y="81.000008" />
    <ns0:path d="m 313.178,321.42947 28.26863,-16.85894 20.01749,16.00001 -28.26863,16.85893 z" id="path5293" style="color:#000000;font-style:normal;font-variant:normal;font-weight:normal;font-stretch:normal;font-size:medium;line-height:normal;font-family:sans-serif;font-variant-ligatures:normal;font-variant-position:normal;font-variant-caps:normal;font-variant-numeric:normal;font-variant-alternates:normal;font-feature-settings:normal;text-indent:0;text-align:start;text-decoration:none;text-decoration-line:none;text-decoration-style:solid;text-decoration-color:#000000;letter-spacing:normal;word-spacing:normal;text-transform:none;writing-mode:lr-tb;direction:ltr;text-orientation:mixed;dominant-baseline:auto;baseline-shift:baseline;text-anchor:start;white-space:normal;shape-padding:0;clip-rule:nonzero;display:inline;overflow:visible;visibility:visible;opacity:1;isolation:auto;mix-blend-mode:normal;color-interpolation:sRGB;color-interpolation-filters:linearRGB;solid-color:#000000;solid-opacity:1;vector-effect:none;fill:#455289;fill-opacity:1;fill-rule:evenodd;stroke:none;stroke-width:9.60980988;stroke-linecap:butt;stroke-linejoin:miter;stroke-miterlimit:4;stroke-dasharray:none;stroke-dashoffset:0;stroke-opacity:1;color-rendering:auto;image-rendering:auto;shape-rendering:auto;text-rendering:auto;enable-background:accumulate" ns1:connector-curvature="0" ns1:transform-center-x="-81.321064" ns1:transform-center-y="64.999999" />
    <ns0:path d="m 329.42686,294.96313 12.01977,9.6074 -28.26863,16.85894 -2.99333,-2.39258 z" id="path5290" style="color:#000000;font-style:normal;font-variant:normal;font-weight:normal;font-stretch:normal;font-size:medium;line-height:normal;font-family:sans-serif;font-variant-ligatures:normal;font-variant-position:normal;font-variant-caps:normal;font-variant-numeric:normal;font-variant-alternates:normal;font-feature-settings:normal;text-indent:0;text-align:start;text-decoration:none;text-decoration-line:none;text-decoration-style:solid;text-decoration-color:#000000;letter-spacing:normal;word-spacing:normal;text-transform:none;writing-mode:lr-tb;direction:ltr;text-orientation:mixed;dominant-baseline:auto;baseline-shift:baseline;text-anchor:start;white-space:normal;shape-padding:0;clip-rule:nonzero;display:inline;overflow:visible;visibility:visible;opacity:1;isolation:auto;mix-blend-mode:normal;color-interpolation:sRGB;color-interpolation-filters:linearRGB;solid-color:#000000;solid-opacity:1;vector-effect:none;fill:#969696;fill-opacity:1;fill-rule:evenodd;stroke:none;stroke-width:9.60980988;stroke-linecap:butt;stroke-linejoin:miter;stroke-miterlimit:4;stroke-dasharray:none;stroke-dashoffset:0;stroke-opacity:1;color-rendering:auto;image-rendering:auto;shape-rendering:auto;text-rendering:auto;enable-background:accumulate" ns1:connector-curvature="0" ns1:transform-center-x="-69.815653" ns1:transform-center-y="52.1963" />
    <ns0:path d="m 135.89505,160 c 9.42162,-11.78735 19.00607,-19.96769 29.1687,-24.48325 10.16262,-4.51556 20.87524,-5.1644 31.53734,-2.22019 21.32423,5.8884 42.57525,25.08203 66.84292,54.76317 0.90815,1.11075 1.78914,2.22502 2.65397,3.34073 4.82964,6.19469 8.82413,12.16181 12.10465,17.88084 8.92648,15.14805 14.65844,29.98022 18.9973,42.70071 3.18139,9.32702 5.63239,17.53713 7.96802,23.79519 2.33561,6.25804 4.7676,10.39443 6.45327,11.74178 0.81968,0.65518 2.97351,1.33042 5.87188,1.95019 2.89834,0.61981 6.54098,1.1835 9.86284,3.83867 l 2.07092,1.65529 -19.24219,24.07376 -2.07092,-1.65528 c -3.32186,-2.65515 -4.67433,-6.08407 -5.91753,-8.77461 -1.24319,-2.69057 -2.37641,-4.64267 -3.1961,-5.29785 -6.15234,-4.91758 -20.26501,-5.79409 -39.30514,-7.46868 -9.96352,-0.8763 -21.22493,-2.18128 -33.34855,-5.0383 -9.38563,-1.93161 -19.83582,-5.38475 -31.32966,-10.81322 -1.21201,-0.56673 -2.42648,-1.14808 -3.64697,-1.75768 -34.29887,-17.13117 -57.70332,-33.63068 -68.14566,-53.13332 -5.22117,-9.75133 -6.94876,-20.34362 -4.78344,-31.25144 2.16529,-10.90784 8.03271,-22.0592 17.45435,-33.84654 z m 8.51877,4.75867 9.99652,7.99023 10.00001,-12.51093 -8.87861,-7.09667 c -3.65735,3.18217 -7.36371,7.03952 -11.11792,11.61737 z m -1.99999,2.50218 c -3.63814,4.67064 -6.584,9.13586 -8.88209,13.40449 l 8.87861,7.09668 10,-12.51092 z m 15.62861,-16.21354 8.36791,6.68847 10,-12.51093 -3.17782,-2.54004 c -1.41884,0.44607 -2.83931,0.97892 -4.26697,1.61325 -3.59107,1.59562 -7.2323,3.83047 -10.92312,6.74923 z m -26,32.52842 c -2.03375,4.24323 -3.41135,8.28742 -4.17649,12.1418 -0.30417,1.53235 -0.51098,3.03531 -0.6334,4.51758 l 3.17783,2.54003 9.99999,-12.51093 z m 45.08261,-41.88042 1.2853,1.02735 1.12696,-1.40992 c -0.80578,0.0973 -1.60933,0.22647 -2.41226,0.38257 z m -50,62.55467 c 0.0246,0.81759 0.0756,1.62988 0.15834,2.43727 l 1.12696,-1.40993 z m 56.70448,-63.17674 -2.91699,3.64942 12.51092,10 7.67383,-9.60067 c -2.40187,-1.06836 -4.75339,-1.92684 -7.05293,-2.56182 -3.50718,-0.96847 -6.89029,-1.46428 -10.21483,-1.48689 z m -4.91699,6.15161 -10.00001,12.51093 12.51095,10 9.99999,-12.51094 z m -12,15.01312 -10,12.51093 12.51093,10 10,-12.51093 z m -12,15.01312 -10.00001,12.51093 12.51093,10 10.00001,-12.51093 z m -12.00001,15.01311 -10,12.51093 12.51094,10.00001 10,-12.51094 z m -11.99999,15.01312 -2.91699,3.64943 c 0.75465,3.23784 1.98371,6.42855 3.70111,9.63616 1.12608,2.10311 2.48161,4.20767 4.05294,6.31511 l 7.67383,-9.60068 z m 73.15472,-60.74056 -8.1416,10.18591 12.51093,9.99999 9.19629,-11.50542 c -4.68748,-3.5604 -9.20895,-6.46341 -13.56562,-8.68048 z m -10.1416,12.68809 -10,12.51093 12.51093,10 10,-12.51093 z m -12.00001,15.01312 -10,12.51094 12.51093,9.99999 10.00001,-12.51093 z m -11.99999,15.01311 -10.00001,12.51094 12.51095,10.00001 9.99999,-12.51093 z m -12.00002,15.01312 -9.99998,12.51095 12.51092,9.99999 10.00001,-12.51092 z m -11.99998,15.01312 -8.1416,10.18591 c 3.12253,3.76106 6.95048,7.53176 11.45624,11.31952 l 9.19629,-11.50542 z m 74.23382,-62.09061 -9.22071,11.53595 12.51094,10 8.69823,-10.88231 c -4.10683,-3.9783 -8.10687,-7.54916 -11.98846,-10.65364 z m -11.2207,14.03814 -10.00001,12.51093 12.51094,10 9.99999,-12.51093 z m -12,15.01311 -10,12.51094 12.51093,10 10,-12.51093 z m -12,15.01314 -10,12.51092 12.51093,10 10,-12.51093 z m -12,15.01311 -10.00001,12.51093 12.51094,10 10,-12.51093 z m -12,15.01312 -9.22072,11.53596 c 3.88353,3.10205 8.24796,6.21704 13.03341,9.34635 l 8.69823,-10.88231 z m 73.51409,-61.19018 -8.50097,10.63552 12.51092,10 7.07324,-8.84928 c -3.77821,-4.24133 -7.47765,-8.18927 -11.08319,-11.78624 z m -10.50097,13.1377 -10.00001,12.51094 12.51093,9.99999 10.00001,-12.51092 z m -12,15.01312 -10.00001,12.51093 12.51094,10.00001 10,-12.51094 z m -12.00001,15.01312 -10,12.51093 12.51094,10 10,-12.51092 z m -12,15.01311 -9.99999,12.51094 12.51092,10 10.00001,-12.51092 z m -12,15.01313 -8.50097,10.63551 c 4.30302,2.72436 8.96907,5.46295 13.93867,8.21377 l 7.07324,-8.84928 z m 71.74066,-58.97144 -6.72754,8.41677 12.51093,10 4.68555,-5.86204 c -0.70748,-0.90206 -1.40935,-1.8028 -2.1571,-2.71733 -2.81659,-3.44493 -5.58471,-6.71594 -8.31184,-9.8374 z m -8.72753,10.91896 -10.00001,12.51093 12.51095,10 9.99999,-12.51093 z m -12.00001,15.01312 -9.99999,12.51094 12.51092,9.99999 10.00001,-12.51093 z m -11.99999,15.01312 -10.00001,12.51093 12.51094,10 10,-12.51093 z m -12.00001,15.01312 -10,12.51092 12.51094,10.00001 9.99999,-12.51093 z m -12,15.01311 -6.72754,8.41678 c 3.64564,1.97231 7.44621,3.95165 11.42709,5.93995 1.05682,0.52785 2.09006,1.01401 3.12585,1.50533 l 4.68554,-5.86205 z m 69.19574,-55.78748 -4.18261,5.23283 12.51092,10 0.99707,-1.24743 c -0.13687,-0.2376 -0.25968,-0.46898 -0.39943,-0.70773 -2.66822,-4.42925 -5.63126,-8.86828 -8.92595,-13.27767 z m -6.18261,7.73501 -10.00001,12.51094 12.51094,9.99999 10,-12.51093 z m -12,15.01311 -10.00001,12.51095 12.51093,10 10.00001,-12.51094 z m -12.00001,15.01313 -10,12.51093 12.51093,10.00001 10.00001,-12.51093 z m -12,15.01311 -10,12.51095 12.51093,9.99999 10.00001,-12.51092 z m -11.99999,15.01313 -4.1875,5.23895 c 5.35661,2.37602 10.61509,4.33045 15.75408,5.94251 l 0.94434,-1.18146 z m 65.19573,-50.78312 -0.18262,0.22845 0.51437,0.41114 c -0.11335,-0.21442 -0.21608,-0.42415 -0.33173,-0.63961 z m -2.18262,2.73064 -10,12.51093 12.51093,10 6.78028,-8.48275 c -0.92378,-2.99944 -2.08882,-6.14336 -3.53178,-9.42466 z m -12,15.01312 -10.00001,12.51094 12.51094,9.99999 10.00001,-12.51093 z m -11.99999,15.01313 -10.00001,12.51093 12.51093,9.99999 10.00001,-12.51093 z m -12.00001,15.01311 -10,12.51093 5.75943,4.60352 c 3.51861,0.68449 6.84197,1.12814 9.97122,1.36831 l 6.78029,-8.48276 z m -12,15.01312 -0.13379,0.16739 c 0.18206,0.0527 0.36622,0.11185 0.54798,0.16365 z m 58.35589,-42.22586 -5.34277,6.68432 7.2561,5.7998 c -0.17984,-3.77296 -0.76941,-7.94288 -1.91333,-12.48412 z m -7.34278,9.1865 -9.99999,12.51093 14.93126,11.93457 c 2.05748,-3.2775 4.12144,-9.06596 4.36641,-17.01385 z m -11.99998,15.01311 -10.00001,12.51095 9.29767,7.43164 c 7.69858,-1.99022 12.88998,-5.27892 15.63359,-8.00802 z m -12.00001,15.01313 -5.34278,6.68432 c 4.68168,0.11516 8.87903,-0.22857 12.59888,-0.88452 z m 42.35066,-14.42344 c -1.28252,6.96882 -3.8612,12.44376 -6.83098,16.15924 -2.5917,3.24244 -6.55349,6.49156 -11.84838,9.11928 13.6627,0.98944 25.06972,2.08529 33.32445,8.68329 l 0.6211,-0.77704 c -4.52667,-3.61817 -6.9338,-9.12917 -9.45639,-15.88823 -1.88155,-5.04146 -3.71137,-10.87564 -5.8098,-17.29654 z" id="path5203" style="color:#000000;font-style:normal;font-variant:normal;font-weight:normal;font-stretch:normal;font-size:medium;line-height:normal;font-family:sans-serif;font-variant-ligatures:normal;font-variant-position:normal;font-variant-caps:normal;font-variant-numeric:normal;font-variant-alternates:normal;font-feature-settings:normal;text-indent:0;text-align:start;text-decoration:none;text-decoration-line:none;text-decoration-style:solid;text-decoration-color:#000000;letter-spacing:normal;word-spacing:normal;text-transform:none;writing-mode:lr-tb;direction:ltr;text-orientation:mixed;dominant-baseline:auto;baseline-shift:baseline;text-anchor:start;white-space:normal;shape-padding:0;clip-rule:nonzero;display:inline;overflow:visible;visibility:visible;opacity:1;isolation:auto;mix-blend-mode:normal;color-interpolation:sRGB;color-interpolation-filters:linearRGB;solid-color:#000000;solid-opacity:1;vector-effect:none;fill:#323232;fill-opacity:1;fill-rule:evenodd;stroke:none;stroke-width:9.60980988;stroke-linecap:butt;stroke-linejoin:miter;stroke-miterlimit:4;stroke-dasharray:none;stroke-dashoffset:0;stroke-opacity:1;color-rendering:auto;image-rendering:auto;shape-rendering:auto;text-rendering:auto;enable-background:accumulate" ns1:connector-curvature="0" ns1:transform-center-x="32.522255" ns1:transform-center-y="-30.728779" />
    <ns0:circle cx="313.0368" cy="16.366434" id="path5301" r="19.21962" style="fill:#323232;fill-opacity:1;stroke:none;stroke-width:3.20326972;stroke-linecap:round;stroke-miterlimit:4;stroke-dasharray:none;stroke-opacity:1" transform="matrix(0.36430182,0.93128094,0.93128094,-0.36430182,0,0)" />
  </svg>