<?xml version='1.0' encoding='utf-8'?>
<svg xmlns:ns0="http://www.w3.org/2000/svg" xmlns:ns1="http://www.inkscape.org/namespaces/inkscape" xmlns:ns2="http://sodipodi.sourceforge.net/DTD/sodipodi-0.dtd" height="512" version="1.1" width="512" xmlns="http://www.w3.org/2000/svg"><ns0:path d="m 172,152 c -2.216,0 -4,1.784 -4,4 v 208 c 0,2.216 1.784,4 4,4 h 24.29102 l 6.34179,12.68359 c 1.01665,2.03269 3.09444,3.31657 5.36719,3.31641 h 72 c 2.27275,1.6e-4 4.35054,-1.28372 5.36719,-3.31641 L 291.70898,368 H 340 c 2.216,0 4,-1.784 4,-4 V 156 c 0,-2.216 -1.784,-4 -4,-4 z m 40,216 a 4,4 0 0 1 4,4 4,4 0 0 1 -4,4 4,4 0 0 1 -4,-4 4,4 0 0 1 4,-4 z m 64,0 a 4,4 0 0 1 4,4 4,4 0 0 1 -4,4 4,4 0 0 1 -4,-4 4,4 0 0 1 4,-4 z" id="rect1207" style="fill:#455289;fill-opacity:1;stroke:none;stroke-width:4;stroke-linecap:round;stroke-linejoin:round;stroke-miterlimit:4;stroke-dasharray:none;stroke-opacity:1" ns1:connector-curvature="0" />
    <ns0:path d="m 224,344 h 32" id="path1217" style="fill:none;fill-rule:evenodd;stroke:#c8c8c8;stroke-width:8;stroke-linecap:round;stroke-linejoin:miter;stroke-miterlimit:4;stroke-dasharray:none;stroke-opacity:1" ns1:connector-curvature="0" />
    <ns0:path d="m 224,328 h 32" id="path1219" style="fill:none;fill-rule:evenodd;stroke:#c8c8c8;stroke-width:8;stroke-linecap:round;stroke-linejoin:miter;stroke-miterlimit:4;stroke-dasharray:none;stroke-opacity:1" ns1:connector-curvature="0" />
    <ns0:path d="m 224,312 h 32" id="path1221" style="fill:none;fill-rule:evenodd;stroke:#c8c8c8;stroke-width:8;stroke-linecap:round;stroke-linejoin:miter;stroke-miterlimit:4;stroke-dasharray:none;stroke-opacity:1" ns1:connector-curvature="0" />
    <ns0:path d="m 224,296 h 32" id="path1223" style="fill:none;fill-rule:evenodd;stroke:#c8c8c8;stroke-width:8;stroke-linecap:round;stroke-linejoin:miter;stroke-miterlimit:4;stroke-dasharray:none;stroke-opacity:1" ns1:connector-curvature="0" />
    <ns0:path d="m 224,280 h 32" id="path1225" style="fill:none;fill-rule:evenodd;stroke:#c8c8c8;stroke-width:8;stroke-linecap:round;stroke-linejoin:miter;stroke-miterlimit:4;stroke-dasharray:none;stroke-opacity:1" ns1:connector-curvature="0" />
    <ns0:path d="m 224,264 h 32" id="path1227" style="fill:none;fill-rule:evenodd;stroke:#c8c8c8;stroke-width:8;stroke-linecap:round;stroke-linejoin:miter;stroke-miterlimit:4;stroke-dasharray:none;stroke-opacity:1" ns1:connector-curvature="0" />
    <ns0:path d="m 224,248 h 32" id="path1229" style="fill:none;fill-rule:evenodd;stroke:#c8c8c8;stroke-width:8;stroke-linecap:round;stroke-linejoin:miter;stroke-miterlimit:4;stroke-dasharray:none;stroke-opacity:1" ns1:connector-curvature="0" />
    <ns0:rect height="112" id="rect1215" style="fill:#323232;fill-opacity:1;stroke:none;stroke-width:12;stroke-linecap:round;stroke-linejoin:round;stroke-miterlimit:4;stroke-dasharray:none;stroke-opacity:1" width="32" x="224" y="240" />
    <ns0:circle cx="256" cy="256" id="path1231" r="248" style="fill:none;fill-opacity:1;stroke:#323232;stroke-width:4;stroke-linecap:round;stroke-linejoin:round;stroke-miterlimit:4;stroke-dasharray:none;stroke-opacity:1" />
    <ns0:path d="M 307.9707,161.97266 A 2.0002,2.0002 0 0 0 306,164 v 4 h -2 v 24 h 2 v 4 a 2.0002,2.0002 0 1 0 4,0 v -4 h 12 v 4 a 2.0002,2.0002 0 1 0 4,0 v -4 h 2 v -24 h -2 v -4 A 2.0002,2.0002 0 0 0 323.9707,161.97266 2.0002,2.0002 0 0 0 322,164 v 4 h -12 v -4 a 2.0002,2.0002 0 0 0 -2.0293,-2.02734 z" id="rect1237" style="fill:#c8c8c8;fill-opacity:1;stroke:none;stroke-width:4;stroke-linecap:round;stroke-linejoin:round;stroke-miterlimit:4;stroke-dasharray:none;stroke-opacity:1" ns1:connector-curvature="0" />
    <ns0:circle cx="316" cy="180" id="path1248" r="8" style="fill:#f26337;fill-opacity:1;stroke:none;stroke-width:4;stroke-linecap:round;stroke-linejoin:round;stroke-miterlimit:4;stroke-dasharray:none;stroke-opacity:1" />
    <ns0:path d="m 256,168 h 32" id="path1250" style="fill:none;fill-rule:evenodd;stroke:#c8c8c8;stroke-width:8;stroke-linecap:round;stroke-linejoin:miter;stroke-miterlimit:4;stroke-dasharray:none;stroke-opacity:1" ns1:connector-curvature="0" />
    <ns0:rect height="48" id="rect1233" style="fill:#969696;fill-opacity:1;stroke:none;stroke-width:4;stroke-linecap:round;stroke-linejoin:round;stroke-miterlimit:4;stroke-dasharray:none;stroke-opacity:1" width="32" x="256" y="128" />
    <ns0:rect height="72" id="rect1252" style="fill:#323232;fill-opacity:1;stroke:none;stroke-width:4;stroke-linecap:round;stroke-linejoin:round;stroke-miterlimit:4;stroke-dasharray:none;stroke-opacity:1" width="16" x="312" y="216" />
    <ns0:rect height="48" id="rect1254" style="fill:#323232;fill-opacity:1;stroke:none;stroke-width:4;stroke-linecap:round;stroke-linejoin:round;stroke-miterlimit:4;stroke-dasharray:none;stroke-opacity:1" width="16" x="312" y="304" />
    <ns0:path d="m 304,344 -32,-32 v -48 h 16 v 40 l 16,16" id="path1260" style="fill:none;fill-rule:evenodd;stroke:#ffffff;stroke-width:4;stroke-linecap:round;stroke-linejoin:round;stroke-miterlimit:4;stroke-dasharray:none;stroke-opacity:0.39215686" ns2:nodetypes="cccccc" ns1:connector-curvature="0" />
    <ns0:path d="M 304,296 V 264 H 288" id="path1262" style="fill:none;fill-rule:evenodd;stroke:#ffffff;stroke-width:4;stroke-linecap:round;stroke-linejoin:round;stroke-miterlimit:4;stroke-dasharray:none;stroke-opacity:0.39215686" ns1:connector-curvature="0" />
    <ns0:path d="m 208,176 v 72 l -16,16 v 72 h 16" id="path1268" style="fill:none;fill-rule:evenodd;stroke:#ffffff;stroke-width:4;stroke-linecap:round;stroke-linejoin:round;stroke-miterlimit:4;stroke-dasharray:none;stroke-opacity:0.39215686" ns1:connector-curvature="0" />
    <ns0:path d="m 192,176 v 64" id="path1270" style="fill:none;fill-rule:evenodd;stroke:#ffffff;stroke-width:4;stroke-linecap:round;stroke-linejoin:round;stroke-miterlimit:4;stroke-dasharray:none;stroke-opacity:0.39215686" ns1:connector-curvature="0" />
    <ns0:rect height="40" id="rect1235" style="fill:#323232;fill-opacity:1;stroke:none;stroke-width:4;stroke-linecap:round;stroke-linejoin:round;stroke-miterlimit:4;stroke-dasharray:none;stroke-opacity:1" width="32" x="184" y="136" />
    <ns0:circle cx="232" cy="200" id="path1272" r="8" style="fill:#c8c8c8;fill-opacity:1;stroke:none;stroke-width:4;stroke-linecap:round;stroke-linejoin:round;stroke-miterlimit:4;stroke-dasharray:none;stroke-opacity:1" />
    <ns0:circle cx="232" cy="224" id="circle1274" r="8" style="fill:#c8c8c8;fill-opacity:1;stroke:none;stroke-width:4;stroke-linecap:round;stroke-linejoin:round;stroke-miterlimit:4;stroke-dasharray:none;stroke-opacity:1" />
  </svg>