<?xml version='1.0' encoding='utf-8'?>
<svg xmlns:ns0="http://www.w3.org/2000/svg" xmlns:ns1="http://www.inkscape.org/namespaces/inkscape" xmlns:ns2="http://sodipodi.sourceforge.net/DTD/sodipodi-0.dtd" height="512" version="1.1" width="512" xmlns="http://www.w3.org/2000/svg"><ns0:circle cx="256" cy="256" id="path4856" r="248" style="fill:none;fill-opacity:1;stroke:#323232;stroke-width:4;stroke-miterlimit:4;stroke-dasharray:none;stroke-opacity:1" />
    <ns0:path d="m 136,168 c 16,-16 64,-32 120,-32 56,0 104,16 120,32 V 320 H 136 Z" id="rect4860" style="fill:#c8c8c8;fill-opacity:1;stroke:none;stroke-width:4;stroke-miterlimit:4;stroke-dasharray:none;stroke-opacity:1" ns2:nodetypes="cccccc" ns1:connector-curvature="0" />
    <ns0:path d="m 190,286 v 2 c 0,28.28571 6.0887,48.59638 12.11328,65.66602 C 208.13786,370.73565 214,384.5 214,400 v 2 h 84 v -2 c 0,-15.5 5.86214,-29.26435 11.88672,-46.33398 C 315.9113,336.59638 322,316.28571 322,288 v -2 z m 4.83789,4 h 10.32422 L 200,304.45703 Z m 16,0 h 10.32422 L 216,304.45703 Z m 16,0 h 10.32422 L 232,304.45703 Z m 16,0 h 10.32422 L 248,304.45703 Z m 16,0 h 10.32422 L 264,304.45703 Z m 16,0 h 10.32422 L 280,304.45703 Z m 16,0 h 10.32422 L 296,304.45703 Z m 16,0 h 10.32422 L 312,304.45703 Z M 208,293.94336 213.87695,310.40039 208,326.85547 202.12305,310.40039 Z m 16,0 5.87695,16.45703 L 224,326.85547 218.12305,310.40039 Z m 16,0 5.87695,16.45703 L 240,326.85547 234.12305,310.40039 Z m 16,0 5.87695,16.45703 L 256,326.85547 250.12305,310.40039 Z m 16,0 5.87695,16.45703 L 272,326.85547 266.12305,310.40039 Z m 16,0 5.87695,16.45703 L 288,326.85547 282.12305,310.40039 Z m 16,0 5.87695,16.45703 L 304,326.85547 298.12305,310.40039 Z m -109.49805,7.00976 3.375,9.44727 -1.75976,4.92773 c -0.70554,-4.53266 -1.25946,-9.31065 -1.61524,-14.375 z m 122.9961,0 c -0.35578,5.06435 -0.9097,9.84234 -1.61524,14.375 l -1.75976,-4.92773 z M 200,316.34375 l 5.87695,16.45703 -3.37109,9.44336 c -1.84813,-5.87813 -3.5654,-12.16262 -4.9668,-19.00781 z m 16,0 5.87695,16.45703 L 216,349.25586 210.12305,332.80078 Z m 16,0 5.87695,16.45703 L 232,349.25586 226.12305,332.80078 Z m 16,0 5.87695,16.45703 L 248,349.25586 242.12305,332.80078 Z m 16,0 5.87695,16.45703 L 264,349.25586 258.12305,332.80078 Z m 16,0 5.87695,16.45703 L 280,349.25586 274.12305,332.80078 Z m 16,0 5.87695,16.45703 L 296,349.25586 290.12305,332.80078 Z m 16,0 2.46094,6.89258 c -1.4014,6.84519 -3.11867,13.12968 -4.9668,19.00781 l -3.37109,-9.44336 z m -104,22.40039 5.87695,16.45508 -3.47656,9.73437 c -1.44391,-4.0813 -2.97805,-8.24867 -4.51367,-12.59961 -0.45058,-1.27665 -0.89491,-2.60313 -1.3418,-3.91406 z m 16,0 5.87695,16.45508 L 224,371.65625 218.12305,355.19922 Z m 16,0 5.87695,16.45508 L 240,371.65625 234.12305,355.19922 Z m 16,0 5.87695,16.45508 L 256,371.65625 250.12305,355.19922 Z m 16,0 5.87695,16.45508 L 272,371.65625 266.12305,355.19922 Z m 16,0 5.87695,16.45508 L 288,371.65625 282.12305,355.19922 Z m 16,0 3.45508,9.67578 c -0.44689,1.31093 -0.89122,2.63741 -1.3418,3.91406 -1.53562,4.35094 -3.06976,8.51831 -4.51367,12.59961 l -3.47656,-9.73437 z m -88,22.40039 5.87695,16.45508 -4.60937,12.9082 C 216.3674,383.90414 214.62568,377.51731 212.48047,371 Z m 16,0 5.87695,16.45508 L 232,394.05664 226.12305,377.59961 Z m 16,0 5.87695,16.45508 L 248,394.05664 242.12305,377.59961 Z m 16,0 5.87695,16.45508 L 264,394.05664 258.12305,377.59961 Z m 16,0 5.87695,16.45508 L 280,394.05664 274.12305,377.59961 Z m 16,0 3.51953,9.85547 c -2.14521,6.51731 -3.88693,12.90414 -4.78711,19.50781 l -4.60937,-12.9082 z M 224,383.54297 229.16211,398 h -10.32422 z m 16,0 L 245.16211,398 h -10.32422 z m 16,0 L 261.16211,398 h -10.32422 z m 16,0 L 277.16211,398 h -10.32422 z m 16,0 L 293.16211,398 h -10.32422 z" id="path4975" style="color:#000000;font-style:normal;font-variant:normal;font-weight:normal;font-stretch:normal;font-size:medium;line-height:normal;font-family:sans-serif;font-variant-ligatures:normal;font-variant-position:normal;font-variant-caps:normal;font-variant-numeric:normal;font-variant-alternates:normal;font-feature-settings:normal;text-indent:0;text-align:start;text-decoration:none;text-decoration-line:none;text-decoration-style:solid;text-decoration-color:#000000;letter-spacing:normal;word-spacing:normal;text-transform:none;writing-mode:lr-tb;direction:ltr;text-orientation:mixed;dominant-baseline:auto;baseline-shift:baseline;text-anchor:start;white-space:normal;shape-padding:0;clip-rule:nonzero;display:inline;overflow:visible;visibility:visible;opacity:1;isolation:auto;mix-blend-mode:normal;color-interpolation:sRGB;color-interpolation-filters:linearRGB;solid-color:#000000;solid-opacity:1;vector-effect:none;fill:#323232;fill-opacity:1;fill-rule:evenodd;stroke:none;stroke-width:4;stroke-linecap:butt;stroke-linejoin:miter;stroke-miterlimit:4;stroke-dasharray:none;stroke-dashoffset:0;stroke-opacity:1;color-rendering:auto;image-rendering:auto;shape-rendering:auto;text-rendering:auto;enable-background:accumulate" ns1:connector-curvature="0" />
    <ns0:path d="M 320,288 V 200 H 192 v 88" id="rect4863" style="fill:none;fill-opacity:1;stroke:#f26337;stroke-width:12;stroke-miterlimit:4;stroke-dasharray:none;stroke-opacity:1" ns2:nodetypes="cccc" ns1:connector-curvature="0" />
    <ns0:path d="M 176,288 H 336" id="path4865" style="fill:none;fill-rule:evenodd;stroke:#323232;stroke-width:12;stroke-linecap:round;stroke-linejoin:miter;stroke-miterlimit:4;stroke-dasharray:none;stroke-opacity:1" ns2:nodetypes="cc" ns1:connector-curvature="0" />
  </svg>