<?xml version='1.0' encoding='utf-8'?>
<svg xmlns:ns0="http://www.w3.org/2000/svg" xmlns:ns1="http://www.inkscape.org/namespaces/inkscape" xmlns:ns2="http://sodipodi.sourceforge.net/DTD/sodipodi-0.dtd" height="512" version="1.1" width="512" xmlns="http://www.w3.org/2000/svg"><ns0:rect height="17.68421" id="rect890" ry="8.8421049" style="fill:#323232;fill-opacity:1;stroke:none;stroke-width:13.26315784;stroke-linejoin:round;stroke-miterlimit:4;stroke-dasharray:none;stroke-opacity:1" width="44.210526" x="185.26315" y="176" />
    <ns0:rect height="17.68421" id="rect892" ry="8.8421049" style="fill:#323232;fill-opacity:1;stroke:none;stroke-width:13.26315784;stroke-linejoin:round;stroke-miterlimit:4;stroke-dasharray:none;stroke-opacity:1" width="44.210526" x="282.52631" y="176" />
    <ns0:circle cx="256" cy="256" id="path886" r="248" style="fill:none;stroke:#323232;stroke-width:4;stroke-linejoin:round;stroke-miterlimit:4;stroke-dasharray:none;stroke-opacity:1" />
    <ns0:path d="m 141.05263,344 c 26.52632,0 53.05263,-53.05263 79.57895,-53.05263 h 70.73684 c 26.52632,0 53.05263,53.05263 79.57895,53.05263 26.52631,0 10.03627,-78.69853 0,-106.10526 C 360,208 344.42105,184.84211 326.73684,184.84211 H 185.26316 C 167.57895,184.84211 152,208 141.05263,237.89474 131.01636,265.30147 114.52632,344 141.05263,344 Z" id="path888" style="fill:#323232;fill-opacity:1;fill-rule:evenodd;stroke:none;stroke-width:1.10526311px;stroke-linecap:butt;stroke-linejoin:miter;stroke-opacity:1" ns2:nodetypes="sssssssss" ns1:connector-curvature="0" />
    <ns0:circle cx="208" cy="232" id="path894" r="24" style="fill:none;fill-opacity:1;stroke:#ffffff;stroke-width:12;stroke-linejoin:round;stroke-miterlimit:4;stroke-dasharray:none;stroke-opacity:1" />
    <ns0:circle cx="304" cy="210" id="path896" r="9.4142132" style="fill:#f26337;fill-opacity:1;stroke:none;stroke-width:14.12132072;stroke-linejoin:round;stroke-miterlimit:4;stroke-dasharray:none;stroke-opacity:1" />
    <ns0:circle cx="326" cy="232" id="circle904" r="9.4142132" style="fill:#f26337;fill-opacity:1;stroke:none;stroke-width:14.12132072;stroke-linejoin:round;stroke-miterlimit:4;stroke-dasharray:none;stroke-opacity:1" />
    <ns0:circle cx="304" cy="254" id="circle906" r="9.4142132" style="fill:#f26337;fill-opacity:1;stroke:none;stroke-width:14.12132072;stroke-linejoin:round;stroke-miterlimit:4;stroke-dasharray:none;stroke-opacity:1" />
    <ns0:circle cx="282" cy="232" id="circle908" r="9.4142132" style="fill:#f26337;fill-opacity:1;stroke:none;stroke-width:14.12132072;stroke-linejoin:round;stroke-miterlimit:4;stroke-dasharray:none;stroke-opacity:1" />
  </svg>