<?xml version='1.0' encoding='utf-8'?>
<svg xmlns:ns0="http://www.w3.org/2000/svg" xmlns:ns1="http://www.inkscape.org/namespaces/inkscape" height="512" version="1.1" width="512" xmlns="http://www.w3.org/2000/svg"><ns0:circle cx="256" cy="255.99998" id="path3955-4-4" r="248" style="display:inline;fill:none;stroke:#455289;stroke-width:4;stroke-miterlimit:4;stroke-dasharray:none;stroke-opacity:1" />
    <ns0:path d="m 256,122.00323 c 73.9962,0 133.99109,59.99491 133.99109,134.00757 0,59.20517 -38.39246,109.42717 -91.64175,127.15499 -6.70449,1.22574 -9.1477,-2.91213 -9.1477,-6.46593 0,-3.17535 0.1152,-11.6074 0.18091,-22.78704 37.27368,8.09477 45.13809,-17.9664 45.13809,-17.9664 6.09573,-15.47377 14.88151,-19.59521 14.88151,-19.59521 12.16679,-8.31685 -0.92136,-8.15233 -0.92136,-8.15233 -13.45012,0.95427 -20.52481,13.81209 -20.52481,13.81209 -11.95289,20.47542 -31.36713,14.56066 -39.0012,11.13849 -1.21751,-8.66236 -4.67258,-14.56889 -8.50606,-17.91703 29.75477,-3.38105 61.03964,-14.8815 61.03964,-66.23052 0,-14.62647 -5.22374,-26.5876 -13.79561,-35.95745 1.38204,-3.38926 5.98057,-17.01213 -1.308,-35.46388 0,0 -11.25365,-3.60316 -36.85412,13.73804 -10.686,-2.96974 -22.15357,-4.4587 -33.5471,-4.50804 -11.37706,0.0493 -22.8446,1.5383 -33.54712,4.50804 -25.58402,-17.3412 -36.81303,-13.73804 -36.81303,-13.73804 -7.31324,18.45175 -2.71468,32.07462 -1.33265,35.46388 -8.58835,9.36985 -13.77919,21.33098 -13.77919,35.95745 0,51.48064 31.33425,62.80836 61.18775,66.12358 -4.81241,4.13787 -9.09836,12.31487 -9.09836,24.81895 0,17.90884 0.1645,32.36256 0.1645,36.75542 0,3.58671 -2.41034,7.75748 -9.21353,6.44947 -53.20818,-17.76071 -91.56773,-67.94981 -91.56773,-127.13853 0,-74.01266 60.00312,-134.00757 134.01579,-134.00757" id="path4184" style="display:inline;fill:#455289;fill-opacity:1;fill-rule:evenodd;stroke:none;stroke-width:2.06185818" ns1:connector-curvature="0" ns1:transform-center-x="0.01237" ns1:transform-center-y="-3.3008694" />
  </svg>