<?xml version='1.0' encoding='utf-8'?>
<svg xmlns:ns0="http://www.w3.org/2000/svg" xmlns:ns1="http://www.inkscape.org/namespaces/inkscape" xmlns:ns2="http://sodipodi.sourceforge.net/DTD/sodipodi-0.dtd" height="512" version="1.1" width="512" xmlns="http://www.w3.org/2000/svg"><ns0:path d="m 94.671843,162.85714 c -4.57143,7.91795 -3.580999,12.93459 1.060801,16.44836 l 29.386076,22.24468 c 2.38517,1.80554 7.95897,-4.64249 11.91794,-2.35678 l 83.13844,48 c 3.95898,2.28572 3.95898,2.28572 1.67326,6.24469 -9.14286,15.8359 -9.08205,34.01629 6.75384,43.15915 15.8359,9.14286 19.26447,3.2044 35.10036,12.34726 19.79486,11.42857 15.71281,36.78461 43.42562,52.78461 27.71282,16 59.93625,5.90165 80.50768,-29.72911 20.57143,-35.63076 13.20514,-68.58625 -14.50768,-84.58625 -27.71281,-16 -47.63076,0.21318 -67.42562,-11.21539 -15.83589,-9.14285 -12.40732,-15.08131 -28.24322,-24.22417 -15.83589,-9.14285 -31.61098,-0.10532 -40.75384,15.73058 -2.28571,3.95897 -2.28571,3.95897 -6.24469,1.67326 l -83.13844,-48 c -3.95897,-2.28572 -1.16171,-10.33679 -3.91794,-11.49963 l -33.9575,-14.32675 c -5.36391,-2.26303 -10.203657,-0.61245 -14.775087,7.30549 z" id="path927" style="fill:#f26337;fill-opacity:1;fill-rule:evenodd;stroke:none;stroke-width:0.5714286px;stroke-linecap:butt;stroke-linejoin:miter;stroke-opacity:1" ns2:nodetypes="sssssssssssssssssss" ns1:connector-curvature="0" ns1:transform-center-x="10.444163" ns1:transform-center-y="5.8615156" />
    <ns0:circle cx="-93.702507" cy="373.70251" id="path934" r="22.857143" style="fill:#323232;fill-opacity:1;stroke:none;stroke-width:2.28571439;stroke-linejoin:round;stroke-miterlimit:4;stroke-dasharray:none;stroke-opacity:1" transform="rotate(-60)" ns1:transform-center-x="-20.784618" ns1:transform-center-y="12.000009" />
    <ns0:rect height="9.1428576" id="rect936" rx="4.5714288" ry="4.5714288" style="fill:#323232;fill-opacity:1;stroke:none;stroke-width:2.28571439;stroke-linejoin:round;stroke-miterlimit:4;stroke-dasharray:none;stroke-opacity:1" transform="rotate(-60)" width="64" x="-125.70251" y="442.27396" ns1:transform-center-x="-84.128201" ns1:transform-center-y="48.571444" />
    <ns0:path d="M 130.3026,183.42857 340.12818,304.57143" id="path938" style="fill:none;fill-rule:evenodd;stroke:#ffffff;stroke-width:2.28600001;stroke-linecap:butt;stroke-linejoin:miter;stroke-miterlimit:4;stroke-dasharray:none;stroke-opacity:1" ns2:nodetypes="cc" ns1:connector-curvature="0" ns1:transform-center-x="20.78461" ns1:transform-center-y="-12" />
    <ns0:path d="M 133.15975,178.47985 342.98533,299.62271" id="path940" style="fill:none;fill-rule:evenodd;stroke:#ffffff;stroke-width:2.28600001;stroke-linecap:butt;stroke-linejoin:miter;stroke-miterlimit:4;stroke-dasharray:none;stroke-opacity:1" ns2:nodetypes="cc" ns1:connector-curvature="0" ns1:transform-center-x="17.92746" ns1:transform-center-y="-16.94872" />
    <ns0:path d="M 127.44546,188.3773 337.27104,309.52015" id="path942" style="fill:none;fill-rule:evenodd;stroke:#ffffff;stroke-width:2.28600001;stroke-linecap:butt;stroke-linejoin:miter;stroke-miterlimit:4;stroke-dasharray:none;stroke-opacity:1" ns2:nodetypes="cc" ns1:connector-curvature="0" ns1:transform-center-x="23.64175" ns1:transform-center-y="-7.051275" />
    <ns0:circle cx="-70.84536" cy="195.41679" id="path944" r="4.5714288" style="fill:#323232;fill-opacity:1;stroke:none;stroke-width:2.28571439;stroke-linejoin:round;stroke-miterlimit:4;stroke-dasharray:none;stroke-opacity:1" transform="rotate(-60)" ns1:transform-center-x="122.18677" ns1:transform-center-y="-96.93772" />
    <ns0:circle cx="-73.131065" cy="177.13107" id="circle946" r="4.5714288" style="fill:#323232;fill-opacity:1;stroke:none;stroke-width:2.28571439;stroke-linejoin:round;stroke-miterlimit:4;stroke-dasharray:none;stroke-opacity:1" transform="rotate(-60)" ns1:transform-center-x="139.16553" ns1:transform-center-y="-104.1011" />
    <ns0:circle cx="116.55965" cy="195.41679" id="circle948" r="4.5714288" style="fill:#323232;fill-opacity:1;stroke:none;stroke-width:2.28571439;stroke-linejoin:round;stroke-miterlimit:4;stroke-dasharray:none;stroke-opacity:1" transform="matrix(-0.5,0.8660254,0.8660254,0.5,0,0)" ns1:transform-center-x="145.04391" ns1:transform-center-y="-57.347987" />
    <ns0:circle cx="114.27393" cy="177.13107" id="circle950" r="4.5714288" style="fill:#323232;fill-opacity:1;stroke:none;stroke-width:2.28571439;stroke-linejoin:round;stroke-miterlimit:4;stroke-dasharray:none;stroke-opacity:1" transform="matrix(-0.5,0.8660254,0.8660254,0.5,0,0)" ns1:transform-center-x="159.73696" ns1:transform-center-y="-68.470336" />
    <ns0:circle cx="256" cy="256" id="path952" r="248" style="fill:none;fill-opacity:1;stroke:#323232;stroke-width:4;stroke-linejoin:round;stroke-miterlimit:4;stroke-dasharray:none;stroke-opacity:1" />
  </svg>