<?xml version='1.0' encoding='utf-8'?>
<svg xmlns:ns0="http://www.w3.org/2000/svg" xmlns:ns1="http://www.inkscape.org/namespaces/inkscape" xmlns:ns2="http://sodipodi.sourceforge.net/DTD/sodipodi-0.dtd" height="512" version="1.1" width="512" xmlns="http://www.w3.org/2000/svg"><ns0:circle cx="256" cy="256" id="path1117" r="248" style="fill:none;fill-opacity:1;stroke:#323232;stroke-width:4;stroke-linecap:round;stroke-linejoin:miter;stroke-miterlimit:4;stroke-dasharray:none;stroke-opacity:1" />
    <ns0:path d="m 160,176 c -8.864,0 -16,7.136 -16,16 V 328 H 368 V 192 c 0,-8.864 -7.136,-16 -16,-16 z" id="rect1121" style="fill:#323232;fill-opacity:1;stroke:none;stroke-width:4;stroke-linecap:round;stroke-linejoin:miter;stroke-miterlimit:4;stroke-dasharray:none;stroke-opacity:1" ns2:nodetypes="ssccsss" ns1:connector-curvature="0" />
    <ns0:path d="m 136,328 h 240 c 8,0 8,3.568 8,8 0,4.432 -7.136,8 -16,8 H 144 c -8.864,0 -16,-3.568 -16,-8 0,-4.432 0,-8 8,-8 z" id="rect1119" style="fill:#969696;fill-opacity:1;stroke:none;stroke-width:4;stroke-linecap:round;stroke-linejoin:miter;stroke-miterlimit:4;stroke-dasharray:none;stroke-opacity:1" ns2:nodetypes="sssssss" ns1:connector-curvature="0" />
    <ns0:path d="M 160,192 H 352 V 316 H 160 Z" id="rect1123" style="fill:#323232;fill-opacity:1;stroke:#969696;stroke-width:4;stroke-linecap:round;stroke-linejoin:round;stroke-miterlimit:4;stroke-dasharray:none;stroke-opacity:1" ns2:nodetypes="ccccc" ns1:connector-curvature="0" />
    <ns0:path d="M 222.09537,236.96582 203.0612,256 l 19.03417,19.03418" id="path1136" style="fill:none;fill-rule:evenodd;stroke:#f26337;stroke-width:9.51708794;stroke-linecap:round;stroke-linejoin:miter;stroke-miterlimit:4;stroke-dasharray:none;stroke-opacity:1" ns2:nodetypes="ccc" ns1:connector-curvature="0" />
    <ns0:path d="m 246.48291,284.55126 19.03418,-57.10252" id="path1138" style="fill:none;fill-rule:evenodd;stroke:#f26337;stroke-width:9.51708794;stroke-linecap:round;stroke-linejoin:miter;stroke-miterlimit:4;stroke-dasharray:none;stroke-opacity:1" ns2:nodetypes="cc" ns1:connector-curvature="0" />
    <ns0:path d="M 289.90463,236.96582 308.9388,256 289.90463,275.03418" id="path1140" style="fill:none;fill-rule:evenodd;stroke:#f26337;stroke-width:9.51708794;stroke-linecap:round;stroke-linejoin:miter;stroke-miterlimit:4;stroke-dasharray:none;stroke-opacity:1" ns2:nodetypes="ccc" ns1:connector-curvature="0" />
  </svg>