<?xml version='1.0' encoding='utf-8'?>
<svg xmlns:ns0="http://www.w3.org/2000/svg" xmlns:ns1="http://www.inkscape.org/namespaces/inkscape" height="512" version="1.1" width="512" xmlns="http://www.w3.org/2000/svg"><ns0:path d="M 176.00001,141.99997 C 162.744,141.99997 152,152.74398 152,165.99999 c 0,13.256 10.744,24 24.00001,24 13.25598,0 23.99998,-10.744 23.99998,-24 0,-13.25601 -10.744,-24.00002 -23.99998,-24.00002 z m -24.00001,64 v 144.00006 h 48.00002 V 205.99997 Z m 79.99999,0 v 144.00006 h 46.13284 v -69.50004 c 0,-18.324 3.6671,-36.0703 27.70312,-36.0703 23.67598,0 24.0078,20.95399 24.0078,37.24998 v 68.32036 H 376 V 272.9375 c 0,-37.84 -8.64683,-66.93753 -55.38281,-66.93753 -22.47199,0 -37.55094,11.65514 -43.71094,22.70315 h -0.6328 v -22.70315 z" id="path4" style="display:inline;fill:#455289;fill-opacity:1;stroke-width:2.05151772" ns1:connector-curvature="0" />
    <ns0:circle cx="256" cy="255.99998" id="path3955-4-3-4" r="248" style="display:inline;fill:none;stroke:#455289;stroke-width:4;stroke-miterlimit:4;stroke-dasharray:none;stroke-opacity:1" />
  </svg>